<svg width="94" height="15" viewBox="0 0 94 15" fill="none" xmlns="http://www.w3.org/2000/svg">
<path d="M9.30517 10.2592H4.06117L2.61717 14.3442H0.774172L5.61917 0.740238H7.86117L12.6302 14.3442H10.7112L9.30517 10.2592ZM8.81117 8.79624L6.72117 2.62124L4.49817 8.79624H8.81117ZM14.3834 14.3442V0.740238H19.9124C21.179 0.740238 22.1607 1.0569 22.8574 1.69024C23.5794 2.3489 23.9404 3.1849 23.9404 4.19824C23.9404 5.59157 23.307 6.57957 22.0404 7.16224C23.6997 7.79557 24.5294 8.89757 24.5294 10.4682C24.5294 11.5576 24.181 12.4696 23.4844 13.2042C22.7624 13.9642 21.768 14.3442 20.5014 14.3442H14.3834ZM16.1124 6.59224H19.4754C20.362 6.59224 21.0207 6.4339 21.4514 6.11724C21.9454 5.7499 22.1924 5.19257 22.1924 4.44524C22.1924 3.6979 21.9454 3.13424 21.4514 2.75424C21.0207 2.43757 20.362 2.27924 19.4754 2.27924H16.1124V6.59224ZM16.1124 12.8052H20.3494C21.122 12.8052 21.7237 12.6026 22.1544 12.1972C22.585 11.7792 22.8004 11.2029 22.8004 10.4682C22.8004 9.73357 22.585 9.16357 22.1544 8.75824C21.7237 8.34024 21.122 8.13124 20.3494 8.13124H16.1124V12.8052ZM32.6286 0.531237C34.7312 0.531237 36.3906 1.25957 37.6066 2.71624C38.6579 3.9829 39.1836 5.59157 39.1836 7.54224C39.1836 9.78424 38.5059 11.5576 37.1506 12.8622C35.9599 13.9896 34.4526 14.5532 32.6286 14.5532C30.5132 14.5532 28.8476 13.8249 27.6316 12.3682C26.5802 11.1016 26.0546 9.4929 26.0546 7.54224C26.0546 5.30024 26.7386 3.5269 28.1066 2.22224C29.2846 1.0949 30.7919 0.531237 32.6286 0.531237ZM32.6096 2.07024C31.0642 2.07024 29.8419 2.6339 28.9426 3.76124C28.1699 4.74924 27.7836 6.00957 27.7836 7.54224C27.7836 9.3029 28.2839 10.6899 29.2846 11.7032C30.1586 12.5772 31.2669 13.0142 32.6096 13.0142C34.1676 13.0142 35.3962 12.4506 36.2956 11.3232C37.0682 10.3352 37.4546 9.0749 37.4546 7.54224C37.4546 5.78157 36.9542 4.39457 35.9536 3.38124C35.0796 2.50724 33.9649 2.07024 32.6096 2.07024ZM50.1593 0.740238H51.8883V10.0692C51.8883 11.5386 51.35 12.6786 50.2733 13.4892C49.3487 14.1986 48.139 14.5532 46.6443 14.5532C44.9217 14.5532 43.5917 14.1036 42.6543 13.2042C41.8437 12.4062 41.4383 11.3612 41.4383 10.0692V0.740238H43.1673V10.0692C43.1673 11.0066 43.4713 11.7349 44.0793 12.2542C44.6873 12.7609 45.5423 13.0142 46.6443 13.0142C47.8097 13.0142 48.709 12.7229 49.3423 12.1402C49.887 11.6209 50.1593 10.9306 50.1593 10.0692V0.740238ZM59.944 2.27924V14.3442H58.215V2.27924H53.731V0.740238H64.39V2.27924H59.944ZM78.5109 0.740238H80.2399V10.0692C80.2399 11.5386 79.7016 12.6786 78.6249 13.4892C77.7002 14.1986 76.4906 14.5532 74.9959 14.5532C73.2732 14.5532 71.9432 14.1036 71.0059 13.2042C70.1952 12.4062 69.7899 11.3612 69.7899 10.0692V0.740238H71.5189V10.0692C71.5189 11.0066 71.8229 11.7349 72.4309 12.2542C73.0389 12.7609 73.8939 13.0142 74.9959 13.0142C76.1612 13.0142 77.0606 12.7229 77.6939 12.1402C78.2386 11.6209 78.5109 10.9306 78.5109 10.0692V0.740238ZM92.7986 4.65424H91.1646C91.1266 2.8809 89.9929 1.99424 87.7636 1.99424C86.8516 1.99424 86.1169 2.20324 85.5596 2.62124C85.0023 3.02657 84.7236 3.5649 84.7236 4.23624C84.7236 4.7429 84.8883 5.14824 85.2176 5.45224C85.5596 5.74357 86.1423 5.9969 86.9656 6.21224L90.1956 7.04824C92.2476 7.5929 93.2736 8.7329 93.2736 10.4682C93.2736 11.7222 92.7733 12.7419 91.7726 13.5272C90.8859 14.2112 89.6129 14.5532 87.9536 14.5532C85.8509 14.5532 84.3246 13.9199 83.3746 12.6532C82.8679 11.9692 82.6019 11.0509 82.5766 9.89824H84.2106V9.93624C84.2106 10.9242 84.5463 11.6906 85.2176 12.2352C85.9016 12.7672 86.8516 13.0332 88.0676 13.0332C89.1823 13.0332 90.0119 12.8496 90.5566 12.4822C91.2026 12.0389 91.5256 11.4182 91.5256 10.6202C91.5256 9.6069 90.6959 8.89124 89.0366 8.47324L85.6546 7.59924C83.8813 7.14324 82.9946 6.09824 82.9946 4.46424C82.9946 3.17224 83.4823 2.17157 84.4576 1.46224C85.3063 0.841571 86.4273 0.531237 87.8206 0.531237C89.7966 0.531237 91.2089 1.10757 92.0576 2.26024C92.5516 2.93157 92.7986 3.6599 92.7986 4.44524C92.7986 4.48324 92.7986 4.5529 92.7986 4.65424Z" fill="#131313"/>
</svg>
