<svg width="152" height="89" viewBox="0 0 152 89" fill="none" xmlns="http://www.w3.org/2000/svg">
<circle cx="106.856" cy="44.4689" r="43.6546" transform="rotate(-90 106.856 44.4689)" stroke="#131313"/>
<rect x="97.139" y="45.0488" width="1.15946" height="19.2297" transform="rotate(-90 97.139 45.0488)" fill="#131313"/>
<rect x="109.349" y="37.0186" width="1.15946" height="9.75225" transform="rotate(-38.8464 109.349 37.0186)" fill="#131313"/>
<rect width="1.15946" height="9.75225" transform="matrix(0.77883 0.627235 0.627235 -0.77883 109.348 51.9147)" fill="#131313"/>
<path d="M9.30517 47.2592H4.06117L2.61717 51.3442H0.774172L5.61917 37.7402H7.86117L12.6302 51.3442H10.7112L9.30517 47.2592ZM8.81117 45.7962L6.72117 39.6212L4.49817 45.7962H8.81117ZM14.3834 51.3442V37.7402H19.9124C21.179 37.7402 22.1607 38.0569 22.8574 38.6902C23.5794 39.3489 23.9404 40.1849 23.9404 41.1982C23.9404 42.5916 23.307 43.5796 22.0404 44.1622C23.6997 44.7956 24.5294 45.8976 24.5294 47.4682C24.5294 48.5576 24.181 49.4696 23.4844 50.2042C22.7624 50.9642 21.768 51.3442 20.5014 51.3442H14.3834ZM16.1124 43.5922H19.4754C20.362 43.5922 21.0207 43.4339 21.4514 43.1172C21.9454 42.7499 22.1924 42.1926 22.1924 41.4452C22.1924 40.6979 21.9454 40.1342 21.4514 39.7542C21.0207 39.4376 20.362 39.2792 19.4754 39.2792H16.1124V43.5922ZM16.1124 49.8052H20.3494C21.122 49.8052 21.7237 49.6026 22.1544 49.1972C22.585 48.7792 22.8004 48.2029 22.8004 47.4682C22.8004 46.7336 22.585 46.1636 22.1544 45.7582C21.7237 45.3402 21.122 45.1312 20.3494 45.1312H16.1124V49.8052ZM32.6286 37.5312C34.7312 37.5312 36.3906 38.2596 37.6066 39.7162C38.6579 40.9829 39.1836 42.5916 39.1836 44.5422C39.1836 46.7842 38.5059 48.5576 37.1506 49.8622C35.9599 50.9896 34.4526 51.5532 32.6286 51.5532C30.5132 51.5532 28.8476 50.8249 27.6316 49.3682C26.5802 48.1016 26.0546 46.4929 26.0546 44.5422C26.0546 42.3002 26.7386 40.5269 28.1066 39.2222C29.2846 38.0949 30.7919 37.5312 32.6286 37.5312ZM32.6096 39.0702C31.0642 39.0702 29.8419 39.6339 28.9426 40.7612C28.1699 41.7492 27.7836 43.0096 27.7836 44.5422C27.7836 46.3029 28.2839 47.6899 29.2846 48.7032C30.1586 49.5772 31.2669 50.0142 32.6096 50.0142C34.1676 50.0142 35.3962 49.4506 36.2956 48.3232C37.0682 47.3352 37.4546 46.0749 37.4546 44.5422C37.4546 42.7816 36.9542 41.3946 35.9536 40.3812C35.0796 39.5072 33.9649 39.0702 32.6096 39.0702ZM50.1593 37.7402H51.8883V47.0692C51.8883 48.5386 51.35 49.6786 50.2733 50.4892C49.3487 51.1986 48.139 51.5532 46.6443 51.5532C44.9217 51.5532 43.5917 51.1036 42.6543 50.2042C41.8437 49.4062 41.4383 48.3612 41.4383 47.0692V37.7402H43.1673V47.0692C43.1673 48.0066 43.4713 48.7349 44.0793 49.2542C44.6873 49.7609 45.5423 50.0142 46.6443 50.0142C47.8097 50.0142 48.709 49.7229 49.3423 49.1402C49.887 48.6209 50.1593 47.9306 50.1593 47.0692V37.7402ZM59.944 39.2792V51.3442H58.215V39.2792H53.731V37.7402H64.39V39.2792H59.944ZM78.5109 37.7402H80.2399V47.0692C80.2399 48.5386 79.7016 49.6786 78.6249 50.4892C77.7002 51.1986 76.4906 51.5532 74.9959 51.5532C73.2732 51.5532 71.9432 51.1036 71.0059 50.2042C70.1952 49.4062 69.7899 48.3612 69.7899 47.0692V37.7402H71.5189V47.0692C71.5189 48.0066 71.8229 48.7349 72.4309 49.2542C73.0389 49.7609 73.8939 50.0142 74.9959 50.0142C76.1612 50.0142 77.0606 49.7229 77.6939 49.1402C78.2386 48.6209 78.5109 47.9306 78.5109 47.0692V37.7402ZM92.7986 41.6542H91.1646C91.1266 39.8809 89.9929 38.9942 87.7636 38.9942C86.8516 38.9942 86.1169 39.2032 85.5596 39.6212C85.0023 40.0266 84.7236 40.5649 84.7236 41.2362C84.7236 41.7429 84.8883 42.1482 85.2176 42.4522C85.5596 42.7436 86.1423 42.9969 86.9656 43.2122L90.1956 44.0482C92.2476 44.5929 93.2736 45.7329 93.2736 47.4682C93.2736 48.7222 92.7733 49.7419 91.7726 50.5272C90.8859 51.2112 89.6129 51.5532 87.9536 51.5532C85.8509 51.5532 84.3246 50.9199 83.3746 49.6532C82.8679 48.9692 82.6019 48.0509 82.5766 46.8982H84.2106V46.9362C84.2106 47.9242 84.5463 48.6906 85.2176 49.2352C85.9016 49.7672 86.8516 50.0332 88.0676 50.0332C89.1823 50.0332 90.0119 49.8496 90.5566 49.4822C91.2026 49.0389 91.5256 48.4182 91.5256 47.6202C91.5256 46.6069 90.6959 45.8912 89.0366 45.4732L85.6546 44.5992C83.8813 44.1432 82.9946 43.0982 82.9946 41.4642C82.9946 40.1722 83.4823 39.1716 84.4576 38.4622C85.3063 37.8416 86.4273 37.5312 87.8206 37.5312C89.7966 37.5312 91.2089 38.1076 92.0576 39.2602C92.5516 39.9316 92.7986 40.6599 92.7986 41.4452C92.7986 41.4832 92.7986 41.5529 92.7986 41.6542Z" fill="#131313"/>
</svg>
