<svg width="100" height="46" viewBox="0 0 100 46" fill="none" xmlns="http://www.w3.org/2000/svg">
<path d="M59.2726 45.5014H61.1593V38.29C61.1593 36.1516 62.7278 35.0369 64.4781 35.0369C66.3876 35.0369 67.2741 35.9696 67.2741 38.0625V45.5014H69.1608V38.199C69.1608 34.7412 67.4332 33.399 64.9782 33.399C63.0233 33.399 61.7049 34.3772 61.1593 35.4919V33.6038H59.2726V45.5014Z" fill="white"/>
<path d="M76.3589 45.7062C79.0412 45.7062 81.0188 44.455 81.428 42.0664H79.5413C79.2912 43.454 78.2229 44.1365 76.3816 44.1365C73.9493 44.1365 72.6536 42.6351 72.5627 39.928H81.5189V39.3137C81.5189 35.0597 78.9275 33.399 76.177 33.399C72.9037 33.399 70.6078 35.9014 70.6078 39.4957V39.6777C70.6078 43.3403 72.9946 45.7062 76.3589 45.7062ZM72.6309 38.4038C72.9492 36.2881 74.2448 34.9687 76.177 34.9687C78.1319 34.9687 79.4049 35.9469 79.5868 38.4038H72.6309Z" fill="white"/>
<path d="M86.1389 45.7062C87.8893 45.7062 88.9576 45.1147 89.8442 44V45.5014H91.7309V37.6531C91.7309 34.3317 89.6623 33.399 87.3892 33.399C85.0933 33.399 82.9338 34.4 82.6837 37.1071H84.5705C84.7523 35.6512 85.6616 34.9687 87.2982 34.9687C89.1168 34.9687 89.8442 35.7649 89.8442 37.6531V38.5175H88.1393C85.0933 38.5175 82.1837 39.4502 82.1837 42.2029C82.1837 44.637 83.934 45.7062 86.1389 45.7062ZM86.3208 44.2048C84.6614 44.2048 84.0704 43.4313 84.0704 42.2029C84.0704 40.4512 85.8207 39.8597 88.2075 39.8597H89.8442V41.3384C89.8442 43.1811 88.3212 44.2048 86.3208 44.2048Z" fill="white"/>
<path d="M94.0731 45.5014H95.9598V38.9725C95.9598 36.0379 97.4828 35.2872 99.8697 35.1734V33.399C97.7329 33.4673 96.71 34.4 95.9598 35.7422V33.6038H94.0731V45.5014Z" fill="white"/>
<path d="M6.62605 45.7063C9.50753 45.7063 11.5886 43.7838 11.8402 41.1977H10.0792C9.87343 43.143 8.34121 44.1271 6.64891 44.1271C4.33915 44.1271 2.73833 42.5708 2.73833 39.6414V39.4583C2.73833 36.6433 4.40776 34.9039 6.58031 34.9039C8.22687 34.9039 9.599 35.6134 9.8963 37.5129H11.7715C11.4056 34.4691 9.07302 33.3247 6.58031 33.3247C3.37866 33.3247 0.771606 35.7965 0.771606 39.4583V39.6414C0.771606 43.349 3.28719 45.7063 6.62605 45.7063Z" fill="white"/>
<path d="M18.3192 44.1271C15.8951 44.1271 14.4086 42.342 14.4086 39.6185V39.4354C14.4086 36.689 15.918 34.9039 18.3192 34.9039C20.6976 34.9039 22.2298 36.689 22.2298 39.4583V39.6185C22.2298 42.3191 20.7204 44.1271 18.3192 44.1271ZM18.2963 45.7063C21.7038 45.7063 24.1965 43.2117 24.1965 39.5956V39.4125C24.1965 35.8194 21.7038 33.3247 18.3192 33.3247C14.9346 33.3247 12.4419 35.8422 12.4419 39.4354V39.6185C12.4419 43.1201 14.8889 45.7063 18.2963 45.7063Z" fill="white"/>
<path d="M30.2686 45.7063C32.0066 45.7063 33.676 44.6077 34.3621 43.4405V45.5003H36.2602V0H34.3621V35.4532C33.676 34.286 32.4411 33.3247 30.4515 33.3247C27.1584 33.3247 24.8715 35.9109 24.8715 39.5727V39.7558C24.8715 43.4863 27.1355 45.7063 30.2686 45.7063ZM30.4744 44.1271C28.4619 44.1271 26.8382 42.6853 26.8382 39.6643V39.4812C26.8382 36.5746 28.2561 34.9039 30.6345 34.9039C32.9671 34.9039 34.4307 36.3457 34.4307 39.4125V39.5956C34.4307 42.6624 32.6927 44.1271 30.4744 44.1271Z" fill="white"/>
<path d="M43.6229 45.7063C46.3215 45.7063 48.3111 44.4475 48.7227 42.0445H46.8246C46.573 43.4405 45.4982 44.1271 43.6458 44.1271C41.1988 44.1271 39.8953 42.6166 39.8038 39.8931H48.8142V39.2752C48.8142 34.9954 46.2071 33.3247 43.44 33.3247C40.1469 33.3247 37.8371 35.8422 37.8371 39.4583V39.6414C37.8371 43.3261 40.2383 45.7063 43.6229 45.7063ZM39.8724 38.3597C40.1926 36.2313 41.4961 34.9039 43.44 34.9039C45.4067 34.9039 46.6874 35.888 46.8703 38.3597H39.8724Z" fill="white"/>
<path d="M50.4003 45.5003H52.3213V0H50.4003V45.5003Z" fill="white"/>
<path d="M54.8794 45.5003H56.7775V33.5307H54.8794V45.5003ZM55.7942 31.0361C56.4803 31.0361 57.052 30.4639 57.052 29.7773C57.052 29.0907 56.4803 28.5186 55.7942 28.5186C55.1081 28.5186 54.5364 29.0907 54.5364 29.7773C54.5364 30.4639 55.1081 31.0361 55.7942 31.0361Z" fill="white"/>
</svg>
