<svg width="171" height="62" viewBox="0 0 171 62" fill="none" xmlns="http://www.w3.org/2000/svg">
<g clip-path="url(#clip0_1423_174)">
<path d="M59.1242 45.7623H61.0099V38.5547C61.0099 36.4174 62.5776 35.3033 64.327 35.3033C66.2355 35.3033 67.1215 36.2355 67.1215 38.3273V45.7623H69.0073V38.4637C69.0073 35.0077 67.2806 33.6662 64.8268 33.6662C62.873 33.6662 61.5552 34.6439 61.0099 35.758V33.8708H59.1242V45.7623Z" fill="black"/>
<path d="M76.2016 45.9669C78.8825 45.9669 80.8591 44.7164 81.2681 42.329H79.3823C79.1324 43.716 78.0646 44.3981 76.2243 44.3981C73.7933 44.3981 72.4983 42.8974 72.4074 40.1917H81.359V39.5778C81.359 35.326 78.7689 33.6662 76.0198 33.6662C72.7482 33.6662 70.4535 36.1673 70.4535 39.7597V39.9416C70.4535 43.6023 72.8391 45.9669 76.2016 45.9669ZM72.4756 38.6684C72.7936 36.5538 74.0887 35.2351 76.0198 35.2351C77.9737 35.2351 79.246 36.2128 79.4278 38.6684H72.4756Z" fill="black"/>
<path d="M85.9766 45.9669C87.726 45.9669 88.7938 45.3758 89.6799 44.2617V45.7623H91.5656V37.918C91.5656 34.5984 89.4981 33.6662 87.2261 33.6662C84.9314 33.6662 82.7731 34.6666 82.5232 37.3723H84.4089C84.5907 35.9172 85.4994 35.2351 87.1353 35.2351C88.9528 35.2351 89.6799 36.0309 89.6799 37.918V38.782H87.9759C84.9314 38.782 82.0233 39.7143 82.0233 42.4654C82.0233 44.8983 83.7728 45.9669 85.9766 45.9669ZM86.1583 44.4663C84.4998 44.4663 83.9091 43.6932 83.9091 42.4654C83.9091 40.7147 85.6585 40.1235 88.0441 40.1235H89.6799V41.6014C89.6799 43.4431 88.1576 44.4663 86.1583 44.4663Z" fill="black"/>
<path d="M93.9066 45.7623H95.7923V39.2368C95.7923 36.3037 97.3146 35.5534 99.7001 35.4397V33.6662C97.5645 33.7344 96.5421 34.6666 95.7923 36.0081V33.8708H93.9066V45.7623Z" fill="black"/>
<path d="M6.50508 45.967C9.38506 45.967 11.465 44.0456 11.7165 41.4608H9.95648C9.75077 43.4051 8.21935 44.3887 6.52793 44.3887C4.21938 44.3887 2.61939 42.8332 2.61939 39.9053V39.7223C2.61939 36.9088 4.28795 35.1703 6.45936 35.1703C8.10507 35.1703 9.47649 35.8794 9.77363 37.778H11.6479C11.2822 34.7357 8.95078 33.592 6.45936 33.592C3.25938 33.592 0.653687 36.0624 0.653687 39.7223V39.9053C0.653687 43.611 3.16796 45.967 6.50508 45.967Z" fill="black"/>
<path d="M18.1921 44.3887C15.7693 44.3887 14.2836 42.6045 14.2836 39.8824V39.6994C14.2836 36.9545 15.7922 35.1703 18.1921 35.1703C20.5693 35.1703 22.1007 36.9545 22.1007 39.7223V39.8824C22.1007 42.5816 20.5921 44.3887 18.1921 44.3887ZM18.1693 45.967C21.575 45.967 24.0664 43.4737 24.0664 39.8596V39.6766C24.0664 36.0853 21.575 33.592 18.1921 33.592C14.8093 33.592 12.3179 36.1082 12.3179 39.6994V39.8824C12.3179 43.3822 14.7636 45.967 18.1693 45.967Z" fill="black"/>
<path d="M30.1353 45.967C31.8724 45.967 33.541 44.8691 34.2267 43.7025V45.7612H36.1238V0.284668H34.2267V35.7193C33.541 34.5527 32.3067 33.592 30.3181 33.592C27.0267 33.592 24.741 36.1768 24.741 39.8367V40.0197C24.741 43.7482 27.0039 45.967 30.1353 45.967ZM30.341 44.3887C28.3296 44.3887 26.7067 42.9476 26.7067 39.9282V39.7452C26.7067 36.8401 28.1239 35.1703 30.501 35.1703C32.8324 35.1703 34.2952 36.6114 34.2952 39.6766V39.8596C34.2952 42.9247 32.5581 44.3887 30.341 44.3887Z" fill="black"/>
<path d="M43.4827 45.967C46.1798 45.967 48.1684 44.709 48.5798 42.3071H46.6827C46.4312 43.7025 45.357 44.3887 43.5055 44.3887C41.0598 44.3887 39.757 42.879 39.6656 40.1569H48.6712V39.5393C48.6712 35.2618 46.0655 33.592 43.2998 33.592C40.0084 33.592 37.6999 36.1082 37.6999 39.7223V39.9053C37.6999 43.5881 40.0998 45.967 43.4827 45.967ZM39.7341 38.6243C40.0541 36.497 41.357 35.1703 43.2998 35.1703C45.2655 35.1703 46.5455 36.1539 46.7284 38.6243H39.7341Z" fill="black"/>
<path d="M50.2566 45.7612H52.1766V0.284668H50.2566V45.7612Z" fill="black"/>
<path d="M54.7333 45.7612H56.6305V33.7978H54.7333V45.7612ZM55.6476 31.3045C56.3333 31.3045 56.9047 30.7327 56.9047 30.0464C56.9047 29.3602 56.3333 28.7883 55.6476 28.7883C54.9619 28.7883 54.3905 29.3602 54.3905 30.0464C54.3905 30.7327 54.9619 31.3045 55.6476 31.3045Z" fill="black"/>
</g>
<defs>
<clipPath id="clip0_1423_174">
<rect width="169.5" height="60.75" fill="white" transform="translate(0.653687 0.284668)"/>
</clipPath>
</defs>
</svg>
