<svg width="718" height="66" viewBox="0 0 718 66" fill="none" xmlns="http://www.w3.org/2000/svg">
<path d="M9.01111 15.7497V16.7397C8.67111 16.8597 8.40611 16.9197 8.21611 16.9197C7.41611 16.9197 6.98111 16.5547 6.91111 15.8247C6.36111 16.5747 5.48611 16.9497 4.28611 16.9497C3.45611 16.9497 2.81111 16.7197 2.35111 16.2597C1.95111 15.8597 1.75111 15.3447 1.75111 14.7147C1.75111 13.9947 2.00611 13.4397 2.51611 13.0497C2.80611 12.8297 3.41111 12.6147 4.33111 12.4047L6.85111 11.8347L6.86611 11.1897C6.86611 10.4197 6.28611 10.0347 5.12611 10.0347C4.01611 10.0347 3.42111 10.4847 3.34111 11.3847H2.09611C2.12611 10.7047 2.29611 10.1847 2.60611 9.82467C3.13611 9.21467 3.99611 8.90967 5.18611 8.90967C7.11611 8.90967 8.08111 9.60967 8.08111 11.0097V15.3147C8.08111 15.6947 8.24611 15.8847 8.57611 15.8847C8.61611 15.8847 8.72111 15.8547 8.89111 15.7947C8.95111 15.7747 8.99111 15.7597 9.01111 15.7497ZM6.86611 12.8397L4.88611 13.3497C4.17611 13.5297 3.68611 13.7147 3.41611 13.9047C3.15611 14.0947 3.02611 14.3597 3.02611 14.6997C3.02611 15.4897 3.53611 15.8847 4.55611 15.8847C5.27611 15.8847 5.88611 15.6497 6.38611 15.1797C6.70611 14.8897 6.86611 14.5597 6.86611 14.1897V12.8397ZM10.1196 6.04467H11.3346V10.1097C11.9046 9.30967 12.7046 8.90967 13.7346 8.90967C14.8246 8.90967 15.6646 9.30967 16.2546 10.1097C16.7746 10.8097 17.0346 11.7347 17.0346 12.8847C17.0346 14.2147 16.6896 15.2497 15.9996 15.9897C15.3996 16.6297 14.6246 16.9497 13.6746 16.9497C12.6046 16.9497 11.7896 16.5447 11.2296 15.7347V16.7847H10.1196V6.04467ZM13.5096 10.0497C12.8496 10.0497 12.3196 10.3197 11.9196 10.8597C11.5296 11.3897 11.3346 12.0947 11.3346 12.9747C11.3346 13.8947 11.5596 14.6147 12.0096 15.1347C12.3996 15.5747 12.8996 15.7947 13.5096 15.7947C14.1896 15.7947 14.7296 15.5397 15.1296 15.0297C15.5396 14.5197 15.7446 13.8347 15.7446 12.9747C15.7446 12.0347 15.5146 11.2947 15.0546 10.7547C14.6546 10.2847 14.1396 10.0497 13.5096 10.0497ZM21.5631 8.90967C22.7231 8.90967 23.6081 9.31467 24.2181 10.1247C24.7581 10.8247 25.0281 11.7747 25.0281 12.9747C25.0281 14.3147 24.6781 15.3347 23.9781 16.0347C23.3781 16.6447 22.5681 16.9497 21.5481 16.9497C20.3681 16.9497 19.4681 16.5547 18.8481 15.7647C18.3081 15.0747 18.0381 14.1447 18.0381 12.9747C18.0381 11.6147 18.3931 10.5697 19.1031 9.83967C19.7131 9.21967 20.5331 8.90967 21.5631 8.90967ZM21.5631 10.0347C20.8631 10.0347 20.3131 10.2997 19.9131 10.8297C19.5131 11.3497 19.3131 12.0647 19.3131 12.9747C19.3131 13.9247 19.5381 14.6497 19.9881 15.1497C20.3781 15.5897 20.8981 15.8097 21.5481 15.8097C22.2381 15.8097 22.7731 15.5597 23.1531 15.0597C23.5431 14.5597 23.7381 13.8647 23.7381 12.9747C23.7381 11.9947 23.5181 11.2447 23.0781 10.7247C22.6981 10.2647 22.1931 10.0347 21.5631 10.0347ZM32.7965 16.7847H31.5815V15.5697C31.0315 16.4897 30.2115 16.9497 29.1215 16.9497C28.3715 16.9497 27.7715 16.7647 27.3215 16.3947C26.8815 16.0147 26.6615 15.5097 26.6615 14.8797V9.07467H27.8765V14.3847C27.8765 14.8347 28.0215 15.1947 28.3115 15.4647C28.6015 15.7347 28.9915 15.8697 29.4815 15.8697C30.1215 15.8697 30.6315 15.6397 31.0115 15.1797C31.3915 14.7097 31.5815 14.0797 31.5815 13.2897V9.07467H32.7965V16.7847ZM37.94 9.07467V10.0647H36.365V15.1947C36.365 15.3747 36.425 15.5297 36.545 15.6597C36.675 15.7797 36.84 15.8397 37.04 15.8397C37.23 15.8397 37.52 15.7947 37.91 15.7047L38.045 16.7847C37.425 16.8947 36.955 16.9497 36.635 16.9497C35.645 16.9497 35.15 16.5447 35.15 15.7347V10.0647H34.1V9.07467H35.15V7.49967L36.365 6.94467V9.07467H37.94ZM48.192 16.7847H46.977V15.5697C46.427 16.4897 45.607 16.9497 44.517 16.9497C43.767 16.9497 43.167 16.7647 42.717 16.3947C42.277 16.0147 42.057 15.5097 42.057 14.8797V9.07467H43.272V14.3847C43.272 14.8347 43.417 15.1947 43.707 15.4647C43.997 15.7347 44.387 15.8697 44.877 15.8697C45.517 15.8697 46.027 15.6397 46.407 15.1797C46.787 14.7097 46.977 14.0797 46.977 13.2897V9.07467H48.192V16.7847ZM55.7955 11.1897H54.4455C54.4055 10.4197 53.8905 10.0347 52.9005 10.0347C52.3905 10.0347 51.9855 10.1347 51.6855 10.3347C51.3955 10.5247 51.2505 10.7847 51.2505 11.1147C51.2505 11.6147 51.7255 11.9747 52.6755 12.1947L53.8605 12.4647C54.6305 12.6447 55.1855 12.8997 55.5255 13.2297C55.8655 13.5597 56.0355 14.0097 56.0355 14.5797C56.0355 15.3097 55.7505 15.8897 55.1805 16.3197C54.6105 16.7397 53.8405 16.9497 52.8705 16.9497C51.8105 16.9497 51.0055 16.6997 50.4555 16.1997C49.9955 15.7897 49.7505 15.2447 49.7205 14.5647H51.1155C51.1955 14.9147 51.3055 15.1697 51.4455 15.3297C51.7155 15.6497 52.2205 15.8097 52.9605 15.8097C53.5105 15.8097 53.9455 15.7097 54.2655 15.5097C54.5955 15.2997 54.7605 15.0247 54.7605 14.6847C54.7605 14.1747 54.3655 13.8247 53.5755 13.6347L52.4205 13.3647C51.5405 13.1547 50.9255 12.9047 50.5755 12.6147C50.1755 12.2847 49.9755 11.8097 49.9755 11.1897C49.9755 10.4897 50.2405 9.93467 50.7705 9.52467C51.3105 9.11467 52.0305 8.90967 52.9305 8.90967C53.8705 8.90967 54.6005 9.14467 55.1205 9.61467C55.5705 10.0247 55.7955 10.5497 55.7955 11.1897Z" fill="black"/>
<path d="M8.14022 54.6897H6.79022C6.75022 53.9197 6.23522 53.5347 5.24522 53.5347C4.73522 53.5347 4.33022 53.6347 4.03022 53.8347C3.74022 54.0247 3.59522 54.2847 3.59522 54.6147C3.59522 55.1147 4.07022 55.4747 5.02022 55.6947L6.20522 55.9647C6.97522 56.1447 7.53022 56.3997 7.87022 56.7297C8.21022 57.0597 8.38022 57.5097 8.38022 58.0797C8.38022 58.8097 8.09522 59.3897 7.52522 59.8197C6.95522 60.2397 6.18522 60.4497 5.21522 60.4497C4.15522 60.4497 3.35022 60.1997 2.80022 59.6997C2.34022 59.2897 2.09522 58.7447 2.06522 58.0647H3.46022C3.54022 58.4147 3.65022 58.6697 3.79022 58.8297C4.06022 59.1497 4.56522 59.3097 5.30522 59.3097C5.85522 59.3097 6.29022 59.2097 6.61022 59.0097C6.94022 58.7997 7.10522 58.5247 7.10522 58.1847C7.10522 57.6747 6.71022 57.3247 5.92022 57.1347L4.76522 56.8647C3.88522 56.6547 3.27022 56.4047 2.92022 56.1147C2.52022 55.7847 2.32022 55.3097 2.32022 54.6897C2.32022 53.9897 2.58522 53.4347 3.11522 53.0247C3.65522 52.6147 4.37522 52.4097 5.27522 52.4097C6.21522 52.4097 6.94522 52.6447 7.46522 53.1147C7.91522 53.5247 8.14022 54.0497 8.14022 54.6897ZM16.5434 56.7897H10.8584C10.8684 57.4497 11.0084 57.9747 11.2784 58.3647C11.7084 58.9947 12.3284 59.3097 13.1384 59.3097C14.1384 59.3097 14.8134 58.8347 15.1634 57.8847H16.3934C16.2334 58.6947 15.8634 59.3247 15.2834 59.7747C14.7034 60.2247 13.9734 60.4497 13.0934 60.4497C11.9234 60.4497 11.0284 60.0497 10.4084 59.2497C9.85838 58.5497 9.58338 57.6247 9.58338 56.4747C9.58338 55.1447 9.94338 54.1097 10.6634 53.3697C11.2934 52.7297 12.1084 52.4097 13.1084 52.4097C13.8384 52.4097 14.4784 52.5847 15.0284 52.9347C15.5884 53.2847 15.9884 53.7647 16.2284 54.3747C16.4384 54.8947 16.5434 55.6847 16.5434 56.7447V56.7897ZM15.2234 55.7847C15.2234 55.1147 15.0234 54.5747 14.6234 54.1647C14.2334 53.7447 13.7284 53.5347 13.1084 53.5347C12.4784 53.5347 11.9634 53.7397 11.5634 54.1497C11.1734 54.5497 10.9534 55.0947 10.9034 55.7847H15.2234ZM18.2069 52.5747H19.3469V53.9847C19.7969 52.9247 20.5069 52.3947 21.4769 52.3947C21.5969 52.3947 21.7419 52.4097 21.9119 52.4397V53.6997C21.1119 53.7097 20.5619 53.8247 20.2619 54.0447C19.7119 54.4447 19.4369 55.1897 19.4369 56.2797V60.2847H18.2069V52.5747ZM26.2941 60.2847H24.9591L22.2441 52.5747H23.6391L25.6791 58.8147L27.8691 52.5747H29.2491L26.2941 60.2847ZM31.6522 52.5747V60.2847H30.4372V52.5747H31.6522ZM31.0672 49.5597C31.2772 49.5597 31.4522 49.6347 31.5922 49.7847C31.7422 49.9247 31.8172 50.0947 31.8172 50.2947C31.8172 50.5047 31.7422 50.6847 31.5922 50.8347C31.4522 50.9747 31.2772 51.0447 31.0672 51.0447C30.8672 51.0447 30.6922 50.9747 30.5422 50.8347C30.4022 50.6847 30.3322 50.5047 30.3322 50.2947C30.3322 50.0947 30.4022 49.9247 30.5422 49.7847C30.6922 49.6347 30.8672 49.5597 31.0672 49.5597ZM39.6589 55.1547H38.4289C38.2789 54.0747 37.6689 53.5347 36.5989 53.5347C35.9289 53.5347 35.4039 53.7997 35.0239 54.3297C34.6439 54.8597 34.4539 55.5947 34.4539 56.5347C34.4539 57.4647 34.6789 58.1747 35.1289 58.6647C35.5089 59.0947 36.0189 59.3097 36.6589 59.3097C37.6889 59.3097 38.3039 58.7497 38.5039 57.6297H39.7489C39.6689 58.5897 39.3239 59.3147 38.7139 59.8047C38.1839 60.2347 37.4889 60.4497 36.6289 60.4497C35.4989 60.4497 34.6189 60.0497 33.9889 59.2497C33.4489 58.5597 33.1789 57.6547 33.1789 56.5347C33.1789 55.1947 33.5339 54.1447 34.2439 53.3847C34.8539 52.7347 35.6439 52.4097 36.6139 52.4097C37.7339 52.4097 38.5739 52.7847 39.1339 53.5347C39.4239 53.9247 39.5989 54.4647 39.6589 55.1547ZM47.642 56.7897H41.957C41.967 57.4497 42.107 57.9747 42.377 58.3647C42.807 58.9947 43.427 59.3097 44.237 59.3097C45.237 59.3097 45.912 58.8347 46.262 57.8847H47.492C47.332 58.6947 46.962 59.3247 46.382 59.7747C45.802 60.2247 45.072 60.4497 44.192 60.4497C43.022 60.4497 42.127 60.0497 41.507 59.2497C40.957 58.5497 40.682 57.6247 40.682 56.4747C40.682 55.1447 41.042 54.1097 41.762 53.3697C42.392 52.7297 43.207 52.4097 44.207 52.4097C44.937 52.4097 45.577 52.5847 46.127 52.9347C46.687 53.2847 47.087 53.7647 47.327 54.3747C47.537 54.8947 47.642 55.6847 47.642 56.7447V56.7897ZM46.322 55.7847C46.322 55.1147 46.122 54.5747 45.722 54.1647C45.332 53.7447 44.827 53.5347 44.207 53.5347C43.577 53.5347 43.062 53.7397 42.662 54.1497C42.272 54.5497 42.052 55.0947 42.002 55.7847H46.322ZM54.7955 54.6897H53.4455C53.4055 53.9197 52.8905 53.5347 51.9005 53.5347C51.3905 53.5347 50.9855 53.6347 50.6855 53.8347C50.3955 54.0247 50.2505 54.2847 50.2505 54.6147C50.2505 55.1147 50.7255 55.4747 51.6755 55.6947L52.8605 55.9647C53.6305 56.1447 54.1855 56.3997 54.5255 56.7297C54.8655 57.0597 55.0355 57.5097 55.0355 58.0797C55.0355 58.8097 54.7505 59.3897 54.1805 59.8197C53.6105 60.2397 52.8405 60.4497 51.8705 60.4497C50.8105 60.4497 50.0055 60.1997 49.4555 59.6997C48.9955 59.2897 48.7505 58.7447 48.7205 58.0647H50.1155C50.1955 58.4147 50.3055 58.6697 50.4455 58.8297C50.7155 59.1497 51.2205 59.3097 51.9605 59.3097C52.5105 59.3097 52.9455 59.2097 53.2655 59.0097C53.5955 58.7997 53.7605 58.5247 53.7605 58.1847C53.7605 57.6747 53.3655 57.3247 52.5755 57.1347L51.4205 56.8647C50.5405 56.6547 49.9255 56.4047 49.5755 56.1147C49.1755 55.7847 48.9755 55.3097 48.9755 54.6897C48.9755 53.9897 49.2405 53.4347 49.7705 53.0247C50.3105 52.6147 51.0305 52.4097 51.9305 52.4097C52.8705 52.4097 53.6005 52.6447 54.1205 53.1147C54.5705 53.5247 54.7955 54.0497 54.7955 54.6897Z" fill="black"/>
<path d="M112.965 16.7847H111.57L109.995 10.7247L108.51 16.7847H107.13L104.895 9.07467H106.245L107.835 15.0747L109.305 9.07467H110.805L112.32 15.0747L113.85 9.07467H115.23L112.965 16.7847ZM119.49 8.90967C120.65 8.90967 121.535 9.31467 122.145 10.1247C122.685 10.8247 122.955 11.7747 122.955 12.9747C122.955 14.3147 122.605 15.3347 121.905 16.0347C121.305 16.6447 120.495 16.9497 119.475 16.9497C118.295 16.9497 117.395 16.5547 116.775 15.7647C116.235 15.0747 115.965 14.1447 115.965 12.9747C115.965 11.6147 116.32 10.5697 117.03 9.83967C117.64 9.21967 118.46 8.90967 119.49 8.90967ZM119.49 10.0347C118.79 10.0347 118.24 10.2997 117.84 10.8297C117.44 11.3497 117.24 12.0647 117.24 12.9747C117.24 13.9247 117.465 14.6497 117.915 15.1497C118.305 15.5897 118.825 15.8097 119.475 15.8097C120.165 15.8097 120.7 15.5597 121.08 15.0597C121.47 14.5597 121.665 13.8647 121.665 12.9747C121.665 11.9947 121.445 11.2447 121.005 10.7247C120.625 10.2647 120.12 10.0347 119.49 10.0347ZM124.648 9.07467H125.788V10.4847C126.238 9.42467 126.948 8.89467 127.918 8.89467C128.038 8.89467 128.183 8.90967 128.353 8.93967V10.1997C127.553 10.2097 127.003 10.3247 126.703 10.5447C126.153 10.9447 125.878 11.6897 125.878 12.7797V16.7847H124.648V9.07467ZM130.606 6.04467V12.3447L133.876 9.07467H135.466L132.781 11.7297L135.931 16.7847H134.416L131.806 12.5997L130.606 13.7697V16.7847H129.391V6.04467H130.606Z" fill="black"/>
<path d="M111.717 55.1547H110.487C110.337 54.0747 109.727 53.5347 108.657 53.5347C107.987 53.5347 107.462 53.7997 107.082 54.3297C106.702 54.8597 106.512 55.5947 106.512 56.5347C106.512 57.4647 106.737 58.1747 107.187 58.6647C107.567 59.0947 108.077 59.3097 108.717 59.3097C109.747 59.3097 110.362 58.7497 110.562 57.6297H111.807C111.727 58.5897 111.382 59.3147 110.772 59.8047C110.242 60.2347 109.547 60.4497 108.687 60.4497C107.557 60.4497 106.677 60.0497 106.047 59.2497C105.507 58.5597 105.237 57.6547 105.237 56.5347C105.237 55.1947 105.592 54.1447 106.302 53.3847C106.912 52.7347 107.702 52.4097 108.672 52.4097C109.792 52.4097 110.632 52.7847 111.192 53.5347C111.482 53.9247 111.657 54.4647 111.717 55.1547ZM120.031 59.2497V60.2397C119.691 60.3597 119.426 60.4197 119.236 60.4197C118.436 60.4197 118.001 60.0547 117.931 59.3247C117.381 60.0747 116.506 60.4497 115.306 60.4497C114.476 60.4497 113.831 60.2197 113.371 59.7597C112.971 59.3597 112.771 58.8447 112.771 58.2147C112.771 57.4947 113.026 56.9397 113.536 56.5497C113.826 56.3297 114.431 56.1147 115.351 55.9047L117.871 55.3347L117.886 54.6897C117.886 53.9197 117.306 53.5347 116.146 53.5347C115.036 53.5347 114.441 53.9847 114.361 54.8847H113.116C113.146 54.2047 113.316 53.6847 113.626 53.3247C114.156 52.7147 115.016 52.4097 116.206 52.4097C118.136 52.4097 119.101 53.1097 119.101 54.5097V58.8147C119.101 59.1947 119.266 59.3847 119.596 59.3847C119.636 59.3847 119.741 59.3547 119.911 59.2947C119.971 59.2747 120.011 59.2597 120.031 59.2497ZM117.886 56.3397L115.906 56.8497C115.196 57.0297 114.706 57.2147 114.436 57.4047C114.176 57.5947 114.046 57.8597 114.046 58.1997C114.046 58.9897 114.556 59.3847 115.576 59.3847C116.296 59.3847 116.906 59.1497 117.406 58.6797C117.726 58.3897 117.886 58.0597 117.886 57.6897V56.3397ZM121.364 52.5747H122.504V53.9847C122.954 52.9247 123.664 52.3947 124.634 52.3947C124.754 52.3947 124.899 52.4097 125.069 52.4397V53.6997C124.269 53.7097 123.719 53.8247 123.419 54.0447C122.869 54.4447 122.594 55.1897 122.594 56.2797V60.2847H121.364V52.5747ZM132.796 56.7897H127.111C127.121 57.4497 127.261 57.9747 127.531 58.3647C127.961 58.9947 128.581 59.3097 129.391 59.3097C130.391 59.3097 131.066 58.8347 131.416 57.8847H132.646C132.486 58.6947 132.116 59.3247 131.536 59.7747C130.956 60.2247 130.226 60.4497 129.346 60.4497C128.176 60.4497 127.281 60.0497 126.661 59.2497C126.111 58.5497 125.836 57.6247 125.836 56.4747C125.836 55.1447 126.196 54.1097 126.916 53.3697C127.546 52.7297 128.361 52.4097 129.361 52.4097C130.091 52.4097 130.731 52.5847 131.281 52.9347C131.841 53.2847 132.241 53.7647 132.481 54.3747C132.691 54.8947 132.796 55.6847 132.796 56.7447V56.7897ZM131.476 55.7847C131.476 55.1147 131.276 54.5747 130.876 54.1647C130.486 53.7447 129.981 53.5347 129.361 53.5347C128.731 53.5347 128.216 53.7397 127.816 54.1497C127.426 54.5497 127.206 55.0947 127.156 55.7847H131.476ZM140.985 56.7897H135.3C135.31 57.4497 135.45 57.9747 135.72 58.3647C136.15 58.9947 136.77 59.3097 137.58 59.3097C138.58 59.3097 139.255 58.8347 139.605 57.8847H140.835C140.675 58.6947 140.305 59.3247 139.725 59.7747C139.145 60.2247 138.415 60.4497 137.535 60.4497C136.365 60.4497 135.47 60.0497 134.85 59.2497C134.3 58.5497 134.025 57.6247 134.025 56.4747C134.025 55.1447 134.385 54.1097 135.105 53.3697C135.735 52.7297 136.55 52.4097 137.55 52.4097C138.28 52.4097 138.92 52.5847 139.47 52.9347C140.03 53.2847 140.43 53.7647 140.67 54.3747C140.88 54.8947 140.985 55.6847 140.985 56.7447V56.7897ZM139.665 55.7847C139.665 55.1147 139.465 54.5747 139.065 54.1647C138.675 53.7447 138.17 53.5347 137.55 53.5347C136.92 53.5347 136.405 53.7397 136.005 54.1497C135.615 54.5497 135.395 55.0947 135.345 55.7847H139.665ZM142.648 52.5747H143.788V53.9847C144.238 52.9247 144.948 52.3947 145.918 52.3947C146.038 52.3947 146.183 52.4097 146.353 52.4397V53.6997C145.553 53.7097 145.003 53.8247 144.703 54.0447C144.153 54.4447 143.878 55.1897 143.878 56.2797V60.2847H142.648V52.5747ZM153.046 54.6897H151.696C151.656 53.9197 151.141 53.5347 150.151 53.5347C149.641 53.5347 149.236 53.6347 148.936 53.8347C148.646 54.0247 148.501 54.2847 148.501 54.6147C148.501 55.1147 148.976 55.4747 149.926 55.6947L151.111 55.9647C151.881 56.1447 152.436 56.3997 152.776 56.7297C153.116 57.0597 153.286 57.5097 153.286 58.0797C153.286 58.8097 153.001 59.3897 152.431 59.8197C151.861 60.2397 151.091 60.4497 150.121 60.4497C149.061 60.4497 148.256 60.1997 147.706 59.6997C147.246 59.2897 147.001 58.7447 146.971 58.0647H148.366C148.446 58.4147 148.556 58.6697 148.696 58.8297C148.966 59.1497 149.471 59.3097 150.211 59.3097C150.761 59.3097 151.196 59.2097 151.516 59.0097C151.846 58.7997 152.011 58.5247 152.011 58.1847C152.011 57.6747 151.616 57.3247 150.826 57.1347L149.671 56.8647C148.791 56.6547 148.176 56.4047 147.826 56.1147C147.426 55.7847 147.226 55.3097 147.226 54.6897C147.226 53.9897 147.491 53.4347 148.021 53.0247C148.561 52.6147 149.281 52.4097 150.181 52.4097C151.121 52.4097 151.851 52.6447 152.371 53.1147C152.821 53.5247 153.046 54.0497 153.046 54.6897Z" fill="black"/>
<path d="M204.984 6.04467V16.7847H203.589V6.04467H204.984ZM213.525 6.04467V16.7847H212.295V15.7197C211.805 16.5497 211.045 16.9647 210.015 16.9647C208.885 16.9647 208.015 16.5547 207.405 15.7347C206.875 15.0147 206.61 14.0647 206.61 12.8847C206.61 11.5947 206.955 10.5847 207.645 9.85467C208.235 9.22467 209 8.90967 209.94 8.90967C210.98 8.90967 211.765 9.29967 212.295 10.0797V6.04467H213.525ZM210.15 10.0497C209.47 10.0497 208.92 10.3197 208.5 10.8597C208.09 11.3897 207.885 12.0947 207.885 12.9747C207.885 13.8847 208.125 14.5997 208.605 15.1197C209.015 15.5797 209.535 15.8097 210.165 15.8097C210.815 15.8097 211.33 15.5547 211.71 15.0447C212.1 14.5347 212.295 13.8447 212.295 12.9747C212.295 12.0247 212.075 11.2847 211.635 10.7547C211.245 10.2847 210.75 10.0497 210.15 10.0497ZM221.954 13.2897H216.269C216.279 13.9497 216.419 14.4747 216.689 14.8647C217.119 15.4947 217.739 15.8097 218.549 15.8097C219.549 15.8097 220.224 15.3347 220.574 14.3847H221.804C221.644 15.1947 221.274 15.8247 220.694 16.2747C220.114 16.7247 219.384 16.9497 218.504 16.9497C217.334 16.9497 216.439 16.5497 215.819 15.7497C215.269 15.0497 214.994 14.1247 214.994 12.9747C214.994 11.6447 215.354 10.6097 216.074 9.86967C216.704 9.22967 217.519 8.90967 218.519 8.90967C219.249 8.90967 219.889 9.08467 220.439 9.43467C220.999 9.78467 221.399 10.2647 221.639 10.8747C221.849 11.3947 221.954 12.1847 221.954 13.2447V13.2897ZM220.634 12.2847C220.634 11.6147 220.434 11.0747 220.034 10.6647C219.644 10.2447 219.139 10.0347 218.519 10.0347C217.889 10.0347 217.374 10.2397 216.974 10.6497C216.584 11.0497 216.364 11.5947 216.314 12.2847H220.634ZM230.472 15.7497V16.7397C230.132 16.8597 229.867 16.9197 229.677 16.9197C228.877 16.9197 228.442 16.5547 228.372 15.8247C227.822 16.5747 226.947 16.9497 225.747 16.9497C224.917 16.9497 224.272 16.7197 223.812 16.2597C223.412 15.8597 223.212 15.3447 223.212 14.7147C223.212 13.9947 223.467 13.4397 223.977 13.0497C224.267 12.8297 224.872 12.6147 225.792 12.4047L228.312 11.8347L228.327 11.1897C228.327 10.4197 227.747 10.0347 226.587 10.0347C225.477 10.0347 224.882 10.4847 224.802 11.3847H223.557C223.587 10.7047 223.757 10.1847 224.067 9.82467C224.597 9.21467 225.457 8.90967 226.647 8.90967C228.577 8.90967 229.542 9.60967 229.542 11.0097V15.3147C229.542 15.6947 229.707 15.8847 230.037 15.8847C230.077 15.8847 230.182 15.8547 230.352 15.7947C230.412 15.7747 230.452 15.7597 230.472 15.7497ZM228.327 12.8397L226.347 13.3497C225.637 13.5297 225.147 13.7147 224.877 13.9047C224.617 14.0947 224.487 14.3597 224.487 14.6997C224.487 15.4897 224.997 15.8847 226.017 15.8847C226.737 15.8847 227.347 15.6497 227.847 15.1797C228.167 14.8897 228.327 14.5597 228.327 14.1897V12.8397ZM237.296 11.1897H235.946C235.906 10.4197 235.391 10.0347 234.401 10.0347C233.891 10.0347 233.486 10.1347 233.186 10.3347C232.896 10.5247 232.751 10.7847 232.751 11.1147C232.751 11.6147 233.226 11.9747 234.176 12.1947L235.361 12.4647C236.131 12.6447 236.686 12.8997 237.026 13.2297C237.366 13.5597 237.536 14.0097 237.536 14.5797C237.536 15.3097 237.251 15.8897 236.681 16.3197C236.111 16.7397 235.341 16.9497 234.371 16.9497C233.311 16.9497 232.506 16.6997 231.956 16.1997C231.496 15.7897 231.251 15.2447 231.221 14.5647H232.616C232.696 14.9147 232.806 15.1697 232.946 15.3297C233.216 15.6497 233.721 15.8097 234.461 15.8097C235.011 15.8097 235.446 15.7097 235.766 15.5097C236.096 15.2997 236.261 15.0247 236.261 14.6847C236.261 14.1747 235.866 13.8247 235.076 13.6347L233.921 13.3647C233.041 13.1547 232.426 12.9047 232.076 12.6147C231.676 12.2847 231.476 11.8097 231.476 11.1897C231.476 10.4897 231.741 9.93467 232.271 9.52467C232.811 9.11467 233.531 8.90967 234.431 8.90967C235.371 8.90967 236.101 9.14467 236.621 9.61467C237.071 10.0247 237.296 10.5497 237.296 11.1897Z" fill="black"/>
<path d="M203.785 49.5447V59.0697H209.08V60.2847H202.42V49.5447H203.785ZM216.968 56.7897H211.283C211.293 57.4497 211.433 57.9747 211.703 58.3647C212.133 58.9947 212.753 59.3097 213.563 59.3097C214.563 59.3097 215.238 58.8347 215.588 57.8847H216.818C216.658 58.6947 216.288 59.3247 215.708 59.7747C215.128 60.2247 214.398 60.4497 213.518 60.4497C212.348 60.4497 211.453 60.0497 210.833 59.2497C210.283 58.5497 210.008 57.6247 210.008 56.4747C210.008 55.1447 210.368 54.1097 211.088 53.3697C211.718 52.7297 212.533 52.4097 213.533 52.4097C214.263 52.4097 214.903 52.5847 215.453 52.9347C216.013 53.2847 216.413 53.7647 216.653 54.3747C216.863 54.8947 216.968 55.6847 216.968 56.7447V56.7897ZM215.648 55.7847C215.648 55.1147 215.448 54.5747 215.048 54.1647C214.658 53.7447 214.153 53.5347 213.533 53.5347C212.903 53.5347 212.388 53.7397 211.988 54.1497C211.598 54.5497 211.378 55.0947 211.328 55.7847H215.648ZM221.662 52.5747V53.5647H220.087V58.6947C220.087 58.8747 220.147 59.0297 220.267 59.1597C220.397 59.2797 220.562 59.3397 220.762 59.3397C220.952 59.3397 221.242 59.2947 221.632 59.2047L221.767 60.2847C221.147 60.3947 220.677 60.4497 220.357 60.4497C219.367 60.4497 218.872 60.0447 218.872 59.2347V53.5647H217.822V52.5747H218.872V50.9997L220.087 50.4447V52.5747H221.662ZM223.625 51.0297H223.595C223.395 51.0297 223.225 50.9647 223.085 50.8347C222.955 50.7047 222.885 50.5347 222.875 50.3247C222.875 50.1847 222.91 50.0497 222.98 49.9197C223.11 49.6697 223.32 49.5447 223.61 49.5447C223.86 49.5447 224.065 49.6497 224.225 49.8597C224.385 50.0597 224.465 50.3197 224.465 50.6397C224.465 51.3597 224.135 52.1047 223.475 52.8747H223.19L222.83 52.5747C223.04 52.3047 223.225 52.0047 223.385 51.6747C223.495 51.4647 223.575 51.2497 223.625 51.0297ZM231.724 54.6897H230.374C230.334 53.9197 229.819 53.5347 228.829 53.5347C228.319 53.5347 227.914 53.6347 227.614 53.8347C227.324 54.0247 227.179 54.2847 227.179 54.6147C227.179 55.1147 227.654 55.4747 228.604 55.6947L229.789 55.9647C230.559 56.1447 231.114 56.3997 231.454 56.7297C231.794 57.0597 231.964 57.5097 231.964 58.0797C231.964 58.8097 231.679 59.3897 231.109 59.8197C230.539 60.2397 229.769 60.4497 228.799 60.4497C227.739 60.4497 226.934 60.1997 226.384 59.6997C225.924 59.2897 225.679 58.7447 225.649 58.0647H227.044C227.124 58.4147 227.234 58.6697 227.374 58.8297C227.644 59.1497 228.149 59.3097 228.889 59.3097C229.439 59.3097 229.874 59.2097 230.194 59.0097C230.524 58.7997 230.689 58.5247 230.689 58.1847C230.689 57.6747 230.294 57.3247 229.504 57.1347L228.349 56.8647C227.469 56.6547 226.854 56.4047 226.504 56.1147C226.104 55.7847 225.904 55.3097 225.904 54.6897C225.904 53.9897 226.169 53.4347 226.699 53.0247C227.239 52.6147 227.959 52.4097 228.859 52.4097C229.799 52.4097 230.529 52.6447 231.049 53.1147C231.499 53.5247 231.724 54.0497 231.724 54.6897ZM240.556 50.7597V60.2847H239.191V50.7597H235.651V49.5447H244.066V50.7597H240.556ZM252.205 59.2497V60.2397C251.865 60.3597 251.6 60.4197 251.41 60.4197C250.61 60.4197 250.175 60.0547 250.105 59.3247C249.555 60.0747 248.68 60.4497 247.48 60.4497C246.65 60.4497 246.005 60.2197 245.545 59.7597C245.145 59.3597 244.945 58.8447 244.945 58.2147C244.945 57.4947 245.2 56.9397 245.71 56.5497C246 56.3297 246.605 56.1147 247.525 55.9047L250.045 55.3347L250.06 54.6897C250.06 53.9197 249.48 53.5347 248.32 53.5347C247.21 53.5347 246.615 53.9847 246.535 54.8847H245.29C245.32 54.2047 245.49 53.6847 245.8 53.3247C246.33 52.7147 247.19 52.4097 248.38 52.4097C250.31 52.4097 251.275 53.1097 251.275 54.5097V58.8147C251.275 59.1947 251.44 59.3847 251.77 59.3847C251.81 59.3847 251.915 59.3547 252.085 59.2947C252.145 59.2747 252.185 59.2597 252.205 59.2497ZM250.06 56.3397L248.08 56.8497C247.37 57.0297 246.88 57.2147 246.61 57.4047C246.35 57.5947 246.22 57.8597 246.22 58.1997C246.22 58.9897 246.73 59.3847 247.75 59.3847C248.47 59.3847 249.08 59.1497 249.58 58.6797C249.9 58.3897 250.06 58.0597 250.06 57.6897V56.3397ZM254.754 49.5447V60.2847H253.524V49.5447H254.754ZM257.856 49.5447V55.8447L261.126 52.5747H262.716L260.031 55.2297L263.181 60.2847H261.666L259.056 56.0997L257.856 57.2697V60.2847H256.641V49.5447H257.856Z" fill="black"/>
<path d="M355.571 9.07467V16.7847H354.356V9.07467H355.571ZM354.986 6.05967C355.196 6.05967 355.371 6.13467 355.511 6.28467C355.661 6.42467 355.736 6.59467 355.736 6.79467C355.736 7.00467 355.661 7.18467 355.511 7.33467C355.371 7.47467 355.196 7.54467 354.986 7.54467C354.786 7.54467 354.611 7.47467 354.461 7.33467C354.321 7.18467 354.251 7.00467 354.251 6.79467C354.251 6.59467 354.321 6.42467 354.461 6.28467C354.611 6.13467 354.786 6.05967 354.986 6.05967ZM357.682 9.07467H358.822V10.3797C359.442 9.39967 360.292 8.90967 361.372 8.90967C362.122 8.90967 362.717 9.09967 363.157 9.47967C363.597 9.84967 363.817 10.3497 363.817 10.9797V16.7847H362.602V11.4747C362.602 11.0147 362.457 10.6497 362.167 10.3797C361.887 10.1097 361.502 9.97467 361.012 9.97467C360.372 9.97467 359.862 10.2097 359.482 10.6797C359.102 11.1497 358.912 11.7747 358.912 12.5547V16.7847H357.682V9.07467ZM368.631 9.07467V10.0647H367.356V16.7847H366.141V10.0647H365.106V9.07467H366.141V7.75467C366.141 7.20467 366.296 6.77467 366.606 6.46467C366.926 6.15467 367.371 5.99967 367.941 5.99967C368.161 5.99967 368.391 6.02467 368.631 6.07467V7.09467H368.496C368.386 7.08467 368.291 7.07967 368.211 7.07967C367.641 7.07967 367.356 7.33967 367.356 7.85967V9.07467H368.631ZM372.987 8.90967C374.147 8.90967 375.032 9.31467 375.642 10.1247C376.182 10.8247 376.452 11.7747 376.452 12.9747C376.452 14.3147 376.102 15.3347 375.402 16.0347C374.802 16.6447 373.992 16.9497 372.972 16.9497C371.792 16.9497 370.892 16.5547 370.272 15.7647C369.732 15.0747 369.462 14.1447 369.462 12.9747C369.462 11.6147 369.817 10.5697 370.527 9.83967C371.137 9.21967 371.957 8.90967 372.987 8.90967ZM372.987 10.0347C372.287 10.0347 371.737 10.2997 371.337 10.8297C370.937 11.3497 370.737 12.0647 370.737 12.9747C370.737 13.9247 370.962 14.6497 371.412 15.1497C371.802 15.5897 372.322 15.8097 372.972 15.8097C373.662 15.8097 374.197 15.5597 374.577 15.0597C374.967 14.5597 375.162 13.8647 375.162 12.9747C375.162 11.9947 374.942 11.2447 374.502 10.7247C374.122 10.2647 373.617 10.0347 372.987 10.0347ZM384.101 17.5047C383.661 17.5847 383.231 17.6247 382.811 17.6247C381.131 17.6247 379.841 17.0347 378.941 15.8547C378.191 14.8847 377.816 13.6497 377.816 12.1497C377.816 10.3797 378.436 8.94467 379.676 7.84467C380.656 6.97467 381.821 6.53967 383.171 6.53967C384.871 6.53967 386.216 7.05967 387.206 8.09967C388.086 9.02967 388.526 10.2297 388.526 11.6997C388.526 12.7097 388.306 13.5497 387.866 14.2197C387.406 14.9197 386.771 15.2697 385.961 15.2697C385.401 15.2697 384.976 15.0997 384.686 14.7597C384.256 15.0897 383.741 15.2547 383.141 15.2547C382.231 15.2547 381.536 14.9497 381.056 14.3397C380.656 13.8297 380.456 13.1697 380.456 12.3597C380.456 11.3497 380.751 10.5647 381.341 10.0047C381.821 9.56467 382.436 9.32967 383.186 9.29967C383.646 9.29967 384.091 9.41967 384.521 9.65967L385.211 9.10467H385.586V13.8597C385.586 14.0797 385.776 14.1897 386.156 14.1897C386.546 14.1897 386.861 13.9797 387.101 13.5597C387.341 13.1397 387.461 12.5847 387.461 11.8947C387.461 10.4747 387.026 9.37467 386.156 8.59467C385.406 7.91467 384.411 7.57467 383.171 7.57467C382.021 7.57467 381.036 7.97967 380.216 8.78967C379.326 9.66967 378.881 10.7797 378.881 12.1197C378.881 13.6397 379.321 14.8097 380.201 15.6297C380.981 16.3597 382.026 16.7247 383.336 16.7247C383.706 16.7247 384.091 16.6947 384.491 16.6347V17.0247L384.101 17.5047ZM384.506 10.4547C384.126 10.3147 383.771 10.2447 383.441 10.2447C382.871 10.2447 382.411 10.4347 382.061 10.8147C381.711 11.1947 381.536 11.6947 381.536 12.3147C381.536 12.9447 381.696 13.4397 382.016 13.7997C382.336 14.1597 382.776 14.3397 383.336 14.3397C383.786 14.3397 384.176 14.2097 384.506 13.9497V10.4547ZM396.097 11.6547H394.867C394.717 10.5747 394.107 10.0347 393.037 10.0347C392.367 10.0347 391.842 10.2997 391.462 10.8297C391.082 11.3597 390.892 12.0947 390.892 13.0347C390.892 13.9647 391.117 14.6747 391.567 15.1647C391.947 15.5947 392.457 15.8097 393.097 15.8097C394.127 15.8097 394.742 15.2497 394.942 14.1297H396.187C396.107 15.0897 395.762 15.8147 395.152 16.3047C394.622 16.7347 393.927 16.9497 393.067 16.9497C391.937 16.9497 391.057 16.5497 390.427 15.7497C389.887 15.0597 389.617 14.1547 389.617 13.0347C389.617 11.6947 389.972 10.6447 390.682 9.88467C391.292 9.23467 392.082 8.90967 393.052 8.90967C394.172 8.90967 395.012 9.28467 395.572 10.0347C395.862 10.4247 396.037 10.9647 396.097 11.6547ZM400.585 8.90967C401.745 8.90967 402.63 9.31467 403.24 10.1247C403.78 10.8247 404.05 11.7747 404.05 12.9747C404.05 14.3147 403.7 15.3347 403 16.0347C402.4 16.6447 401.59 16.9497 400.57 16.9497C399.39 16.9497 398.49 16.5547 397.87 15.7647C397.33 15.0747 397.06 14.1447 397.06 12.9747C397.06 11.6147 397.415 10.5697 398.125 9.83967C398.735 9.21967 399.555 8.90967 400.585 8.90967ZM400.585 10.0347C399.885 10.0347 399.335 10.2997 398.935 10.8297C398.535 11.3497 398.335 12.0647 398.335 12.9747C398.335 13.9247 398.56 14.6497 399.01 15.1497C399.4 15.5897 399.92 15.8097 400.57 15.8097C401.26 15.8097 401.795 15.5597 402.175 15.0597C402.565 14.5597 402.76 13.8647 402.76 12.9747C402.76 11.9947 402.54 11.2447 402.1 10.7247C401.72 10.2647 401.215 10.0347 400.585 10.0347ZM412.028 6.04467V16.7847H410.798V15.7197C410.308 16.5497 409.548 16.9647 408.518 16.9647C407.388 16.9647 406.518 16.5547 405.908 15.7347C405.378 15.0147 405.113 14.0647 405.113 12.8847C405.113 11.5947 405.458 10.5847 406.148 9.85467C406.738 9.22467 407.503 8.90967 408.443 8.90967C409.483 8.90967 410.268 9.29967 410.798 10.0797V6.04467H412.028ZM408.653 10.0497C407.973 10.0497 407.423 10.3197 407.003 10.8597C406.593 11.3897 406.388 12.0947 406.388 12.9747C406.388 13.8847 406.628 14.5997 407.108 15.1197C407.518 15.5797 408.038 15.8097 408.668 15.8097C409.318 15.8097 409.833 15.5547 410.213 15.0447C410.603 14.5347 410.798 13.8447 410.798 12.9747C410.798 12.0247 410.578 11.2847 410.138 10.7547C409.748 10.2847 409.253 10.0497 408.653 10.0497ZM420.457 13.2897H414.772C414.782 13.9497 414.922 14.4747 415.192 14.8647C415.622 15.4947 416.242 15.8097 417.052 15.8097C418.052 15.8097 418.727 15.3347 419.077 14.3847H420.307C420.147 15.1947 419.777 15.8247 419.197 16.2747C418.617 16.7247 417.887 16.9497 417.007 16.9497C415.837 16.9497 414.942 16.5497 414.322 15.7497C413.772 15.0497 413.497 14.1247 413.497 12.9747C413.497 11.6447 413.857 10.6097 414.577 9.86967C415.207 9.22967 416.022 8.90967 417.022 8.90967C417.752 8.90967 418.392 9.08467 418.942 9.43467C419.502 9.78467 419.902 10.2647 420.142 10.8747C420.352 11.3947 420.457 12.1847 420.457 13.2447V13.2897ZM419.137 12.2847C419.137 11.6147 418.937 11.0747 418.537 10.6647C418.147 10.2447 417.642 10.0347 417.022 10.0347C416.392 10.0347 415.877 10.2397 415.477 10.6497C415.087 11.0497 414.867 11.5947 414.817 12.2847H419.137ZM423.335 6.04467V16.7847H422.105V6.04467H423.335ZM426.557 9.07467V16.7847H425.342V9.07467H426.557ZM425.972 6.05967C426.182 6.05967 426.357 6.13467 426.497 6.28467C426.647 6.42467 426.722 6.59467 426.722 6.79467C426.722 7.00467 426.647 7.18467 426.497 7.33467C426.357 7.47467 426.182 7.54467 425.972 7.54467C425.772 7.54467 425.597 7.47467 425.447 7.33467C425.307 7.18467 425.237 7.00467 425.237 6.79467C425.237 6.59467 425.307 6.42467 425.447 6.28467C425.597 6.13467 425.772 6.05967 425.972 6.05967ZM428.669 9.07467H429.809V10.3797C430.429 9.39967 431.279 8.90967 432.359 8.90967C433.109 8.90967 433.704 9.09967 434.144 9.47967C434.584 9.84967 434.804 10.3497 434.804 10.9797V16.7847H433.589V11.4747C433.589 11.0147 433.444 10.6497 433.154 10.3797C432.874 10.1097 432.489 9.97467 431.999 9.97467C431.359 9.97467 430.849 10.2097 430.469 10.6797C430.089 11.1497 429.899 11.7747 429.899 12.5547V16.7847H428.669V9.07467ZM443.367 13.2897H437.682C437.692 13.9497 437.832 14.4747 438.102 14.8647C438.532 15.4947 439.152 15.8097 439.962 15.8097C440.962 15.8097 441.637 15.3347 441.987 14.3847H443.217C443.057 15.1947 442.687 15.8247 442.107 16.2747C441.527 16.7247 440.797 16.9497 439.917 16.9497C438.747 16.9497 437.852 16.5497 437.232 15.7497C436.682 15.0497 436.407 14.1247 436.407 12.9747C436.407 11.6447 436.767 10.6097 437.487 9.86967C438.117 9.22967 438.932 8.90967 439.932 8.90967C440.662 8.90967 441.302 9.08467 441.852 9.43467C442.412 9.78467 442.812 10.2647 443.052 10.8747C443.262 11.3947 443.367 12.1847 443.367 13.2447V13.2897ZM442.047 12.2847C442.047 11.6147 441.847 11.0747 441.447 10.6647C441.057 10.2447 440.552 10.0347 439.932 10.0347C439.302 10.0347 438.787 10.2397 438.387 10.6497C437.997 11.0497 437.777 11.5947 437.727 12.2847H442.047ZM451.886 15.7497V16.7397C451.546 16.8597 451.281 16.9197 451.091 16.9197C450.291 16.9197 449.856 16.5547 449.786 15.8247C449.236 16.5747 448.361 16.9497 447.161 16.9497C446.331 16.9497 445.686 16.7197 445.226 16.2597C444.826 15.8597 444.626 15.3447 444.626 14.7147C444.626 13.9947 444.881 13.4397 445.391 13.0497C445.681 12.8297 446.286 12.6147 447.206 12.4047L449.726 11.8347L449.741 11.1897C449.741 10.4197 449.161 10.0347 448.001 10.0347C446.891 10.0347 446.296 10.4847 446.216 11.3847H444.971C445.001 10.7047 445.171 10.1847 445.481 9.82467C446.011 9.21467 446.871 8.90967 448.061 8.90967C449.991 8.90967 450.956 9.60967 450.956 11.0097V15.3147C450.956 15.6947 451.121 15.8847 451.451 15.8847C451.491 15.8847 451.596 15.8547 451.766 15.7947C451.826 15.7747 451.866 15.7597 451.886 15.7497ZM449.741 12.8397L447.761 13.3497C447.051 13.5297 446.561 13.7147 446.291 13.9047C446.031 14.0947 445.901 14.3597 445.901 14.6997C445.901 15.4897 446.411 15.8847 447.431 15.8847C448.151 15.8847 448.761 15.6497 449.261 15.1797C449.581 14.8897 449.741 14.5597 449.741 14.1897V12.8397ZM453.219 9.07467H454.359V10.4847C454.809 9.42467 455.519 8.89467 456.489 8.89467C456.609 8.89467 456.754 8.90967 456.924 8.93967V10.1997C456.124 10.2097 455.574 10.3247 455.274 10.5447C454.724 10.9447 454.449 11.6897 454.449 12.7797V16.7847H453.219V9.07467ZM458.606 15.3897C458.816 15.3897 458.991 15.4597 459.131 15.5997C459.271 15.7397 459.341 15.9147 459.341 16.1247C459.341 16.3247 459.271 16.4997 459.131 16.6497C458.991 16.7897 458.816 16.8597 458.606 16.8597C458.406 16.8597 458.231 16.7897 458.081 16.6497C457.941 16.4997 457.871 16.3247 457.871 16.1247C457.871 15.9147 457.941 15.7397 458.081 15.5997C458.231 15.4597 458.406 15.3897 458.606 15.3897ZM467.025 11.6547H465.795C465.645 10.5747 465.035 10.0347 463.965 10.0347C463.295 10.0347 462.77 10.2997 462.39 10.8297C462.01 11.3597 461.82 12.0947 461.82 13.0347C461.82 13.9647 462.045 14.6747 462.495 15.1647C462.875 15.5947 463.385 15.8097 464.025 15.8097C465.055 15.8097 465.67 15.2497 465.87 14.1297H467.115C467.035 15.0897 466.69 15.8147 466.08 16.3047C465.55 16.7347 464.855 16.9497 463.995 16.9497C462.865 16.9497 461.985 16.5497 461.355 15.7497C460.815 15.0597 460.545 14.1547 460.545 13.0347C460.545 11.6947 460.9 10.6447 461.61 9.88467C462.22 9.23467 463.01 8.90967 463.98 8.90967C465.1 8.90967 465.94 9.28467 466.5 10.0347C466.79 10.4247 466.965 10.9647 467.025 11.6547ZM471.513 8.90967C472.673 8.90967 473.558 9.31467 474.168 10.1247C474.708 10.8247 474.978 11.7747 474.978 12.9747C474.978 14.3147 474.628 15.3347 473.928 16.0347C473.328 16.6447 472.518 16.9497 471.498 16.9497C470.318 16.9497 469.418 16.5547 468.798 15.7647C468.258 15.0747 467.988 14.1447 467.988 12.9747C467.988 11.6147 468.343 10.5697 469.053 9.83967C469.663 9.21967 470.483 8.90967 471.513 8.90967ZM471.513 10.0347C470.813 10.0347 470.263 10.2997 469.863 10.8297C469.463 11.3497 469.263 12.0647 469.263 12.9747C469.263 13.9247 469.488 14.6497 469.938 15.1497C470.328 15.5897 470.848 15.8097 471.498 15.8097C472.188 15.8097 472.723 15.5597 473.103 15.0597C473.493 14.5597 473.688 13.8647 473.688 12.9747C473.688 11.9947 473.468 11.2447 473.028 10.7247C472.648 10.2647 472.143 10.0347 471.513 10.0347ZM476.686 9.07467H477.826V10.1847C478.426 9.33467 479.216 8.90967 480.196 8.90967C481.146 8.90967 481.836 9.28967 482.266 10.0497C482.636 9.61967 482.991 9.32467 483.331 9.16467C483.681 8.99467 484.111 8.90967 484.621 8.90967C486.121 8.90967 486.871 9.61467 486.871 11.0247V16.7847H485.641V11.5047C485.641 10.4847 485.161 9.97467 484.201 9.97467C483.701 9.97467 483.276 10.1697 482.926 10.5597C482.576 10.9497 482.401 11.4147 482.401 11.9547V16.7847H481.171V11.5047C481.171 10.4847 480.696 9.97467 479.746 9.97467C479.236 9.97467 478.801 10.1697 478.441 10.5597C478.091 10.9397 477.916 11.4047 477.916 11.9547V16.7847H476.686V9.07467Z" fill="black"/>
<path d="M356.761 60.0747V57.4197H354.091V56.3697H356.761V53.6847H357.796V56.3697H360.466V57.4197H357.796V60.0747H356.761ZM365.44 49.5447V59.7147L364.795 60.2847H364.165V51.0747L362.305 52.6347L361.63 51.7947L364.3 49.5447H365.44ZM375.251 49.5447V56.5197H376.841V57.6747H375.251V59.7147L374.606 60.2847H373.976V57.6747H369.581V56.5497L373.871 49.5447H375.251ZM373.976 51.2247L370.841 56.5197H373.976V51.2247ZM381.48 49.5447V59.7147L380.835 60.2847H380.205V51.0747L378.345 52.6347L377.67 51.7947L380.34 49.5447H381.48ZM388.312 49.5447V50.6247H384.817L384.637 53.9397C385.097 53.8697 385.462 53.8347 385.732 53.8347C386.842 53.8347 387.697 54.1747 388.297 54.8547C388.817 55.4447 389.077 56.2297 389.077 57.2097C389.077 58.3097 388.692 59.1397 387.922 59.6997C387.312 60.1497 386.512 60.3747 385.522 60.3747C384.922 60.3747 384.322 60.2847 383.722 60.1047L383.242 59.5197V59.0547C383.932 59.1947 384.537 59.2647 385.057 59.2647C385.987 59.2647 386.667 59.1147 387.097 58.8147C387.577 58.4847 387.817 57.9397 387.817 57.1797C387.817 55.6597 386.922 54.8997 385.132 54.8997C384.712 54.8997 384.102 54.9447 383.302 55.0347L383.602 49.5447H388.312ZM398.171 49.5447V50.6247H394.676L394.496 53.9397C394.956 53.8697 395.321 53.8347 395.591 53.8347C396.701 53.8347 397.556 54.1747 398.156 54.8547C398.676 55.4447 398.936 56.2297 398.936 57.2097C398.936 58.3097 398.551 59.1397 397.781 59.6997C397.171 60.1497 396.371 60.3747 395.381 60.3747C394.781 60.3747 394.181 60.2847 393.581 60.1047L393.101 59.5197V59.0547C393.791 59.1947 394.396 59.2647 394.916 59.2647C395.846 59.2647 396.526 59.1147 396.956 58.8147C397.436 58.4847 397.676 57.9397 397.676 57.1797C397.676 55.6597 396.781 54.8997 394.991 54.8997C394.571 54.8997 393.961 54.9447 393.161 55.0347L393.461 49.5447H398.171ZM400.475 50.3247C401.415 49.7147 402.365 49.4097 403.325 49.4097C404.265 49.4097 404.97 49.6847 405.44 50.2347C405.85 50.7147 406.055 51.3547 406.055 52.1547C406.055 52.7847 405.895 53.3997 405.575 53.9997C405.285 54.5097 404.775 55.1997 404.045 56.0697L401.93 58.4697L401.315 59.2197H406.235V59.6397L405.71 60.2847H399.965V59.2047L401.105 57.8397L403.415 55.1547C403.875 54.6047 404.2 54.1447 404.39 53.7747C404.65 53.2747 404.78 52.7897 404.78 52.3197C404.78 51.7997 404.625 51.3797 404.315 51.0597C404.005 50.7397 403.59 50.5797 403.07 50.5797C402.46 50.5797 401.825 50.8147 401.165 51.2847L400.475 50.3247ZM408.072 49.7097C408.722 49.5097 409.252 49.4097 409.662 49.4097C410.662 49.4097 411.462 49.6697 412.062 50.1897C412.632 50.6897 412.917 51.3597 412.917 52.1997C412.917 53.6097 412.292 54.4547 411.042 54.7347C411.762 54.8547 412.327 55.1597 412.737 55.6497C413.157 56.1397 413.367 56.7447 413.367 57.4647C413.367 58.5047 412.962 59.2947 412.152 59.8347C411.532 60.2447 410.757 60.4497 409.827 60.4497C409.227 60.4497 408.627 60.3647 408.027 60.1947L407.547 59.5947V59.1297C408.237 59.2797 408.842 59.3547 409.362 59.3547C411.172 59.3547 412.077 58.7447 412.077 57.5247C412.077 56.8647 411.802 56.3097 411.252 55.8597C410.942 55.6097 410.612 55.4397 410.262 55.3497C409.922 55.2497 409.417 55.1947 408.747 55.1847V54.2097H410.022C410.502 54.2097 410.892 54.0547 411.192 53.7447C411.502 53.4247 411.657 53.0147 411.657 52.5147C411.657 51.9247 411.462 51.4597 411.072 51.1197C410.682 50.7697 410.152 50.5947 409.482 50.5947C409.152 50.5947 408.682 50.6597 408.072 50.7897V49.7097ZM422.385 49.5447V50.6247H418.89L418.71 53.9397C419.17 53.8697 419.535 53.8347 419.805 53.8347C420.915 53.8347 421.77 54.1747 422.37 54.8547C422.89 55.4447 423.15 56.2297 423.15 57.2097C423.15 58.3097 422.765 59.1397 421.995 59.6997C421.385 60.1497 420.585 60.3747 419.595 60.3747C418.995 60.3747 418.395 60.2847 417.795 60.1047L417.315 59.5197V59.0547C418.005 59.1947 418.61 59.2647 419.13 59.2647C420.06 59.2647 420.74 59.1147 421.17 58.8147C421.65 58.4847 421.89 57.9397 421.89 57.1797C421.89 55.6597 420.995 54.8997 419.205 54.8997C418.785 54.8997 418.175 54.9447 417.375 55.0347L417.675 49.5447H422.385ZM429.474 54.9597C428.894 55.7797 428.139 56.1897 427.209 56.1897C426.199 56.1897 425.429 55.8247 424.899 55.0947C424.469 54.5047 424.254 53.7547 424.254 52.8447C424.254 51.7447 424.574 50.8797 425.214 50.2497C425.784 49.6697 426.539 49.3797 427.479 49.3797C428.869 49.3797 429.809 50.0097 430.299 51.2697C430.609 52.0297 430.764 53.1147 430.764 54.5247C430.764 58.4547 429.369 60.4197 426.579 60.4197C426.329 60.4197 426.004 60.3997 425.604 60.3597L425.124 59.7447V59.2947C425.524 59.3547 425.864 59.3847 426.144 59.3847C427.344 59.3847 428.189 59.0597 428.679 58.4097C429.169 57.7497 429.434 56.5997 429.474 54.9597ZM427.464 50.5347C426.814 50.5347 426.309 50.8097 425.949 51.3597C425.679 51.7897 425.544 52.3047 425.544 52.9047C425.544 53.5447 425.714 54.0747 426.054 54.4947C426.394 54.9047 426.824 55.1097 427.344 55.1097C427.944 55.1097 428.429 54.9147 428.799 54.5247C429.169 54.1347 429.354 53.6297 429.354 53.0097C429.354 51.3597 428.724 50.5347 427.464 50.5347ZM437.165 49.5447V50.6247H433.67L433.49 53.9397C433.95 53.8697 434.315 53.8347 434.585 53.8347C435.695 53.8347 436.55 54.1747 437.15 54.8547C437.67 55.4447 437.93 56.2297 437.93 57.2097C437.93 58.3097 437.545 59.1397 436.775 59.6997C436.165 60.1497 435.365 60.3747 434.375 60.3747C433.775 60.3747 433.175 60.2847 432.575 60.1047L432.095 59.5197V59.0547C432.785 59.1947 433.39 59.2647 433.91 59.2647C434.84 59.2647 435.52 59.1147 435.95 58.8147C436.43 58.4847 436.67 57.9397 436.67 57.1797C436.67 55.6597 435.775 54.8997 433.985 54.8997C433.565 54.8997 432.955 54.9447 432.155 55.0347L432.455 49.5447H437.165ZM445.454 49.5447V50.4897L441.884 59.5797L441.014 60.2847H440.234L444.134 50.6247H438.929V49.5447H445.454Z" fill="black"/>
<path d="M593.472 3.2041C593.899 3.2041 594.31 3.37398 594.612 3.67637C594.914 3.97876 595.084 4.38889 595.084 4.81654V16.1036C595.084 16.5312 594.914 16.9414 594.612 17.2438C594.31 17.5461 593.899 17.716 593.472 17.716H582.185C581.757 17.716 581.347 17.5461 581.045 17.2438C580.742 16.9414 580.572 16.5312 580.572 16.1036V4.81654C580.572 4.38889 580.742 3.97876 581.045 3.67637C581.347 3.37398 581.757 3.2041 582.185 3.2041H593.472ZM593.069 15.7005V11.4275C593.069 10.7305 592.792 10.062 592.299 9.56906C591.806 9.07616 591.137 8.79926 590.44 8.79926C589.755 8.79926 588.957 9.21849 588.57 9.84734V8.95244H586.321V15.7005H588.57V11.7258C588.57 11.105 589.07 10.5971 589.691 10.5971C589.99 10.5971 590.277 10.716 590.489 10.9277C590.7 11.1394 590.819 11.4265 590.819 11.7258V15.7005H593.069ZM583.7 7.68668C584.06 7.68668 584.404 7.54398 584.658 7.28997C584.912 7.03596 585.055 6.69145 585.055 6.33223C585.055 5.58245 584.45 4.96972 583.7 4.96972C583.339 4.96972 582.992 5.11327 582.737 5.36879C582.481 5.62431 582.338 5.97087 582.338 6.33223C582.338 7.08201 582.951 7.68668 583.7 7.68668ZM584.821 15.7005V8.95244H582.588V15.7005H584.821Z" fill="black"/>
<path d="M635.93 10.46C635.93 6.00949 632.318 2.39746 627.868 2.39746C623.417 2.39746 619.805 6.00949 619.805 10.46C619.805 14.3623 622.579 17.6115 626.255 18.3613V12.8788H624.643V10.46H626.255V8.44439C626.255 6.88831 627.521 5.62249 629.077 5.62249H631.093V8.04126H629.48C629.037 8.04126 628.674 8.40407 628.674 8.84752V10.46H631.093V12.8788H628.674V18.4823C632.746 18.0792 635.93 14.6445 635.93 10.46Z" fill="black"/>
<path d="M664.522 2.39746H671.294C673.874 2.39746 675.97 4.49373 675.97 7.07375V13.8463C675.97 15.0865 675.478 16.276 674.601 17.1529C673.724 18.0299 672.534 18.5226 671.294 18.5226H664.522C661.941 18.5226 659.845 16.4263 659.845 13.8463V7.07375C659.845 5.83352 660.338 4.64409 661.215 3.76711C662.092 2.89014 663.281 2.39746 664.522 2.39746ZM664.36 4.00997C663.59 4.00997 662.852 4.31578 662.308 4.8601C661.764 5.40443 661.458 6.1427 661.458 6.9125V14.0076C661.458 15.612 662.756 16.9101 664.36 16.9101H671.455C672.225 16.9101 672.963 16.6043 673.508 16.06C674.052 15.5156 674.358 14.7774 674.358 14.0076V6.9125C674.358 5.30805 673.06 4.00997 671.455 4.00997H664.36ZM672.141 5.21936C672.408 5.21936 672.664 5.32554 672.853 5.51454C673.042 5.70355 673.148 5.95989 673.148 6.22718C673.148 6.49447 673.042 6.75082 672.853 6.93982C672.664 7.12882 672.408 7.235 672.141 7.235C671.873 7.235 671.617 7.12882 671.428 6.93982C671.239 6.75082 671.133 6.49447 671.133 6.22718C671.133 5.95989 671.239 5.70355 671.428 5.51454C671.617 5.32554 671.873 5.21936 672.141 5.21936ZM667.908 6.42875C668.977 6.42875 670.002 6.85347 670.758 7.60948C671.514 8.36549 671.939 9.39087 671.939 10.46C671.939 11.5292 671.514 12.5546 670.758 13.3106C670.002 14.0666 668.977 14.4913 667.908 14.4913C666.839 14.4913 665.813 14.0666 665.057 13.3106C664.301 12.5546 663.876 11.5292 663.876 10.46C663.876 9.39087 664.301 8.36549 665.057 7.60948C665.813 6.85347 666.839 6.42875 667.908 6.42875ZM667.908 8.04126C667.266 8.04126 666.651 8.29609 666.197 8.7497C665.744 9.20331 665.489 9.81853 665.489 10.46C665.489 11.1015 665.744 11.7168 666.197 12.1704C666.651 12.624 667.266 12.8788 667.908 12.8788C668.549 12.8788 669.165 12.624 669.618 12.1704C670.072 11.7168 670.327 11.1015 670.327 10.46C670.327 9.81853 670.072 9.20331 669.618 8.7497C669.165 8.29609 668.549 8.04126 667.908 8.04126Z" fill="black"/>
<g clip-path="url(#clip0_1423_178)">
<path d="M709.187 10.4598C709.187 13.4651 706.744 15.902 703.729 15.902C703.014 15.9029 702.305 15.7629 701.643 15.4899C700.982 15.2169 700.381 14.8163 699.874 14.311C699.367 13.8056 698.965 13.2054 698.69 12.5446C698.416 11.8838 698.274 11.1754 698.273 10.4598C698.273 7.45327 700.716 5.01758 703.729 5.01758C704.445 5.01647 705.154 5.15636 705.816 5.42927C706.477 5.70218 707.079 6.10276 707.586 6.60813C708.092 7.1135 708.495 7.71376 708.77 8.37463C709.044 9.0355 709.186 9.74404 709.187 10.4598ZM715.174 10.4598C715.174 13.2897 713.952 15.5827 712.445 15.5827C710.938 15.5827 709.717 13.2885 709.717 10.4598C709.717 7.62983 710.938 5.33686 712.445 5.33686C713.952 5.33686 715.174 7.63104 715.174 10.4598ZM717.623 10.4598C717.623 12.9946 717.193 15.0494 716.662 15.0494C716.133 15.0494 715.703 12.9934 715.703 10.4598C715.703 7.92492 716.133 5.87019 716.664 5.87019C717.193 5.87019 717.623 7.92492 717.623 10.4598Z" fill="black"/>
</g>
<defs>
<clipPath id="clip0_1423_178">
<rect width="19.35" height="19.35" fill="white" transform="translate(698.273 0.784668)"/>
</clipPath>
</defs>
</svg>
