<svg width="98" height="232" viewBox="0 0 98 232" fill="none" xmlns="http://www.w3.org/2000/svg">
<g style="mix-blend-mode:difference">
<path d="M2.5214 141.367V133.357H3.9614V141.367H2.5214ZM1.2914 134.497V133.357H3.9614V134.497H1.2914ZM2.9264 132.067C2.6064 132.067 2.3664 131.982 2.2064 131.812C2.0564 131.642 1.9814 131.427 1.9814 131.167C1.9814 130.907 2.0564 130.692 2.2064 130.522C2.3664 130.352 2.6064 130.267 2.9264 130.267C3.2464 130.267 3.4814 130.352 3.6314 130.522C3.7914 130.692 3.8714 130.907 3.8714 131.167C3.8714 131.427 3.7914 131.642 3.6314 131.812C3.4814 131.982 3.2464 132.067 2.9264 132.067ZM6.74566 141.367V133.357H7.88566V136.792H7.70566C7.70566 136.002 7.81066 135.337 8.02066 134.797C8.24066 134.247 8.57066 133.832 9.01066 133.552C9.45066 133.262 10.0057 133.117 10.6757 133.117H10.7357C11.7457 133.117 12.4907 133.432 12.9707 134.062C13.4607 134.692 13.7057 135.602 13.7057 136.792V141.367H12.2657V136.492C12.2657 135.872 12.0907 135.377 11.7407 135.007C11.3907 134.627 10.9107 134.437 10.3007 134.437C9.67066 134.437 9.16066 134.632 8.77066 135.022C8.38066 135.412 8.18566 135.932 8.18566 136.582V141.367H6.74566ZM19.4604 141.457C18.8604 141.457 18.3404 141.372 17.9004 141.202C17.4704 141.032 17.1354 140.742 16.8954 140.332C16.6654 139.912 16.5504 139.347 16.5504 138.637V130.927H17.9304V138.817C17.9304 139.247 18.0454 139.582 18.2754 139.822C18.5154 140.052 18.8504 140.167 19.2804 140.167H20.6904V141.457H19.4604ZM15.1704 134.437V133.357H20.6904V134.437H15.1704ZM22.7271 141.367V133.357H23.8671V136.657H23.8071C23.8071 135.487 24.0621 134.632 24.5721 134.092C25.0921 133.542 25.8671 133.267 26.8971 133.267H27.1671V134.557H26.6571C25.8571 134.557 25.2421 134.772 24.8121 135.202C24.3821 135.622 24.1671 136.232 24.1671 137.032V141.367H22.7271ZM32.4816 141.637C31.7816 141.637 31.1666 141.517 30.6366 141.277C30.1066 141.037 29.6566 140.722 29.2866 140.332C28.9266 139.932 28.6516 139.487 28.4616 138.997C28.2816 138.507 28.1916 138.007 28.1916 137.497V137.227C28.1916 136.717 28.2866 136.217 28.4766 135.727C28.6666 135.227 28.9466 134.782 29.3166 134.392C29.6866 133.992 30.1366 133.677 30.6666 133.447C31.1966 133.207 31.8016 133.087 32.4816 133.087C33.1616 133.087 33.7666 133.207 34.2966 133.447C34.8266 133.677 35.2766 133.992 35.6466 134.392C36.0166 134.782 36.2966 135.227 36.4866 135.727C36.6766 136.217 36.7716 136.717 36.7716 137.227V137.497C36.7716 138.007 36.6766 138.507 36.4866 138.997C36.3066 139.487 36.0316 139.932 35.6616 140.332C35.3016 140.722 34.8566 141.037 34.3266 141.277C33.7966 141.517 33.1816 141.637 32.4816 141.637ZM32.4816 140.347C33.0816 140.347 33.5916 140.217 34.0116 139.957C34.4416 139.687 34.7666 139.327 34.9866 138.877C35.2166 138.427 35.3316 137.922 35.3316 137.362C35.3316 136.792 35.2166 136.282 34.9866 135.832C34.7566 135.382 34.4266 135.027 33.9966 134.767C33.5766 134.507 33.0716 134.377 32.4816 134.377C31.9016 134.377 31.3966 134.507 30.9666 134.767C30.5366 135.027 30.2066 135.382 29.9766 135.832C29.7466 136.282 29.6316 136.792 29.6316 137.362C29.6316 137.922 29.7416 138.427 29.9616 138.877C30.1916 139.327 30.5166 139.687 30.9366 139.957C31.3666 140.217 31.8816 140.347 32.4816 140.347ZM42.2733 141.637C41.7033 141.637 41.1783 141.532 40.6983 141.322C40.2183 141.112 39.7983 140.817 39.4383 140.437C39.0883 140.057 38.8133 139.617 38.6133 139.117C38.4233 138.617 38.3283 138.077 38.3283 137.497V137.227C38.3283 136.657 38.4233 136.122 38.6133 135.622C38.8033 135.122 39.0683 134.682 39.4083 134.302C39.7583 133.922 40.1683 133.627 40.6383 133.417C41.1183 133.197 41.6483 133.087 42.2283 133.087C42.8383 133.087 43.3933 133.217 43.8933 133.477C44.3933 133.727 44.8033 134.122 45.1233 134.662C45.4433 135.202 45.6233 135.902 45.6633 136.762L45.0633 135.802V130.417H46.5033V141.367H45.3633V137.812H45.7833C45.7433 138.722 45.5533 139.462 45.2133 140.032C44.8733 140.592 44.4433 141.002 43.9233 141.262C43.4133 141.512 42.8633 141.637 42.2733 141.637ZM42.4683 140.377C42.9583 140.377 43.4033 140.267 43.8033 140.047C44.2033 139.827 44.5233 139.512 44.7633 139.102C45.0033 138.682 45.1233 138.192 45.1233 137.632V136.942C45.1233 136.392 44.9983 135.927 44.7483 135.547C44.5083 135.157 44.1833 134.862 43.7733 134.662C43.3733 134.452 42.9333 134.347 42.4533 134.347C41.9233 134.347 41.4533 134.472 41.0433 134.722C40.6433 134.972 40.3283 135.322 40.0983 135.772C39.8783 136.222 39.7683 136.752 39.7683 137.362C39.7683 137.972 39.8833 138.507 40.1133 138.967C40.3433 139.417 40.6633 139.767 41.0733 140.017C41.4833 140.257 41.9483 140.377 42.4683 140.377ZM52.0451 141.607C51.0951 141.607 50.3651 141.297 49.8551 140.677C49.3451 140.057 49.0901 139.162 49.0901 137.992V133.342H50.5301V138.277C50.5301 138.907 50.7001 139.402 51.0401 139.762C51.3801 140.112 51.8401 140.287 52.4201 140.287C53.0201 140.287 53.5101 140.097 53.8901 139.717C54.2701 139.327 54.4601 138.797 54.4601 138.127V133.342H55.9001V141.367H54.7601V137.932H54.9401C54.9401 138.722 54.8351 139.392 54.6251 139.942C54.4151 140.482 54.1001 140.897 53.6801 141.187C53.2701 141.467 52.7451 141.607 52.1051 141.607H52.0451ZM62.124 141.637C61.434 141.637 60.834 141.517 60.324 141.277C59.824 141.037 59.409 140.717 59.079 140.317C58.749 139.907 58.499 139.457 58.329 138.967C58.169 138.477 58.089 137.987 58.089 137.497V137.227C58.089 136.717 58.169 136.217 58.329 135.727C58.499 135.237 58.749 134.797 59.079 134.407C59.419 134.007 59.839 133.687 60.339 133.447C60.839 133.207 61.424 133.087 62.094 133.087C62.764 133.087 63.364 133.212 63.894 133.462C64.434 133.712 64.864 134.067 65.184 134.527C65.514 134.977 65.699 135.512 65.739 136.132H64.359C64.289 135.632 64.059 135.217 63.669 134.887C63.279 134.547 62.754 134.377 62.094 134.377C61.524 134.377 61.049 134.507 60.669 134.767C60.289 135.027 60.004 135.382 59.814 135.832C59.624 136.282 59.529 136.792 59.529 137.362C59.529 137.912 59.624 138.417 59.814 138.877C60.004 139.327 60.289 139.687 60.669 139.957C61.059 140.217 61.544 140.347 62.124 140.347C62.574 140.347 62.964 140.267 63.294 140.107C63.624 139.947 63.889 139.732 64.089 139.462C64.289 139.192 64.409 138.887 64.449 138.547H65.829C65.799 139.177 65.614 139.722 65.274 140.182C64.944 140.642 64.504 141.002 63.954 141.262C63.414 141.512 62.804 141.637 62.124 141.637ZM70.9057 141.457C70.3057 141.457 69.7857 141.372 69.3457 141.202C68.9157 141.032 68.5807 140.742 68.3407 140.332C68.1107 139.912 67.9957 139.347 67.9957 138.637V130.927H69.3757V138.817C69.3757 139.247 69.4907 139.582 69.7207 139.822C69.9607 140.052 70.2957 140.167 70.7257 140.167H72.1357V141.457H70.9057ZM66.6157 134.437V133.357H72.1357V134.437H66.6157ZM74.5624 141.367V133.357H76.0024V141.367H74.5624ZM73.3324 134.497V133.357H76.0024V134.497H73.3324ZM74.9674 132.067C74.6474 132.067 74.4074 131.982 74.2474 131.812C74.0974 131.642 74.0224 131.427 74.0224 131.167C74.0224 130.907 74.0974 130.692 74.2474 130.522C74.4074 130.352 74.6474 130.267 74.9674 130.267C75.2874 130.267 75.5224 130.352 75.6724 130.522C75.8324 130.692 75.9124 130.907 75.9124 131.167C75.9124 131.427 75.8324 131.642 75.6724 131.812C75.5224 131.982 75.2874 132.067 74.9674 132.067ZM82.4767 141.637C81.7767 141.637 81.1617 141.517 80.6317 141.277C80.1017 141.037 79.6517 140.722 79.2817 140.332C78.9217 139.932 78.6467 139.487 78.4567 138.997C78.2767 138.507 78.1867 138.007 78.1867 137.497V137.227C78.1867 136.717 78.2817 136.217 78.4717 135.727C78.6617 135.227 78.9417 134.782 79.3117 134.392C79.6817 133.992 80.1317 133.677 80.6617 133.447C81.1917 133.207 81.7967 133.087 82.4767 133.087C83.1567 133.087 83.7617 133.207 84.2917 133.447C84.8217 133.677 85.2717 133.992 85.6417 134.392C86.0117 134.782 86.2917 135.227 86.4817 135.727C86.6717 136.217 86.7667 136.717 86.7667 137.227V137.497C86.7667 138.007 86.6717 138.507 86.4817 138.997C86.3017 139.487 86.0267 139.932 85.6567 140.332C85.2967 140.722 84.8517 141.037 84.3217 141.277C83.7917 141.517 83.1767 141.637 82.4767 141.637ZM82.4767 140.347C83.0767 140.347 83.5867 140.217 84.0067 139.957C84.4367 139.687 84.7617 139.327 84.9817 138.877C85.2117 138.427 85.3267 137.922 85.3267 137.362C85.3267 136.792 85.2117 136.282 84.9817 135.832C84.7517 135.382 84.4217 135.027 83.9917 134.767C83.5717 134.507 83.0667 134.377 82.4767 134.377C81.8967 134.377 81.3917 134.507 80.9617 134.767C80.5317 135.027 80.2017 135.382 79.9717 135.832C79.7417 136.282 79.6267 136.792 79.6267 137.362C79.6267 137.922 79.7367 138.427 79.9567 138.877C80.1867 139.327 80.5117 139.687 80.9317 139.957C81.3617 140.217 81.8767 140.347 82.4767 140.347ZM88.9234 141.367V133.357H90.0634V136.792H89.8834C89.8834 136.002 89.9884 135.337 90.1984 134.797C90.4184 134.247 90.7484 133.832 91.1884 133.552C91.6284 133.262 92.1834 133.117 92.8534 133.117H92.9134C93.9234 133.117 94.6684 133.432 95.1484 134.062C95.6384 134.692 95.8834 135.602 95.8834 136.792V141.367H94.4434V136.492C94.4434 135.872 94.2684 135.377 93.9184 135.007C93.5684 134.627 93.0884 134.437 92.4784 134.437C91.8484 134.437 91.3384 134.632 90.9484 135.022C90.5584 135.412 90.3634 135.932 90.3634 136.582V141.367H88.9234Z" fill="white"/>
<line opacity="0.5" x1="0.138184" y1="158.992" x2="29.6382" y2="158.992" stroke="white" stroke-width="0.75"/>
<path opacity="0.5" d="M49.2393 163.367V161.447H49.0473V159.227C49.0473 158.787 48.9313 158.455 48.6993 158.231C48.4753 158.007 48.1433 157.895 47.7033 157.895C47.4553 157.895 47.1993 157.899 46.9353 157.907C46.6713 157.915 46.4193 157.923 46.1793 157.931C45.9393 157.939 45.7313 157.951 45.5553 157.967V156.959C45.7313 156.943 45.9153 156.931 46.1073 156.923C46.3073 156.907 46.5113 156.899 46.7193 156.899C46.9273 156.891 47.1273 156.887 47.3193 156.887C47.9753 156.887 48.5113 156.967 48.9273 157.127C49.3433 157.279 49.6513 157.531 49.8513 157.883C50.0513 158.235 50.1513 158.711 50.1513 159.311V163.367H49.2393ZM47.1393 163.535C46.6593 163.535 46.2433 163.455 45.8913 163.295C45.5473 163.127 45.2793 162.887 45.0873 162.575C44.9033 162.263 44.8113 161.887 44.8113 161.447C44.8113 160.991 44.9113 160.611 45.1113 160.307C45.3193 160.003 45.6193 159.775 46.0113 159.623C46.4033 159.463 46.8753 159.383 47.4273 159.383H49.1673V160.247H47.3793C46.9153 160.247 46.5593 160.359 46.3113 160.583C46.0633 160.807 45.9393 161.095 45.9393 161.447C45.9393 161.799 46.0633 162.083 46.3113 162.299C46.5593 162.515 46.9153 162.623 47.3793 162.623C47.6513 162.623 47.9113 162.575 48.1593 162.479C48.4073 162.375 48.6113 162.207 48.7713 161.975C48.9393 161.735 49.0313 161.407 49.0473 160.991L49.3593 161.447C49.3193 161.903 49.2073 162.287 49.0233 162.599C48.8473 162.903 48.5993 163.135 48.2793 163.295C47.9673 163.455 47.5873 163.535 47.1393 163.535ZM55.6496 163.583C55.1216 163.583 54.6496 163.467 54.2336 163.235C53.8256 163.003 53.5016 162.667 53.2616 162.227C53.0216 161.779 52.8896 161.243 52.8656 160.619H53.1776V163.367H52.2656V154.607H53.4176V158.867L53.0096 159.743C53.0416 159.047 53.1816 158.479 53.4296 158.039C53.6776 157.599 54.0016 157.275 54.4016 157.067C54.8096 156.851 55.2576 156.743 55.7456 156.743C56.2016 156.743 56.6176 156.831 56.9936 157.007C57.3696 157.175 57.6936 157.411 57.9656 157.715C58.2376 158.011 58.4456 158.359 58.5896 158.759C58.7336 159.151 58.8056 159.575 58.8056 160.031V160.247C58.8056 160.703 58.7296 161.131 58.5776 161.531C58.4336 161.931 58.2216 162.287 57.9416 162.599C57.6616 162.903 57.3256 163.143 56.9336 163.319C56.5496 163.495 56.1216 163.583 55.6496 163.583ZM55.5176 162.575C55.9496 162.575 56.3256 162.471 56.6456 162.263C56.9656 162.055 57.2136 161.771 57.3896 161.411C57.5656 161.043 57.6536 160.619 57.6536 160.139C57.6536 159.659 57.5616 159.239 57.3776 158.879C57.2016 158.519 56.9536 158.243 56.6336 158.051C56.3136 157.851 55.9416 157.751 55.5176 157.751C55.1336 157.751 54.7776 157.839 54.4496 158.015C54.1216 158.183 53.8576 158.431 53.6576 158.759C53.4656 159.079 53.3696 159.467 53.3696 159.923V160.475C53.3696 160.915 53.4696 161.291 53.6696 161.603C53.8696 161.915 54.1336 162.155 54.4616 162.323C54.7896 162.491 55.1416 162.575 55.5176 162.575ZM63.4911 163.583C62.9311 163.583 62.4391 163.487 62.0151 163.295C61.5911 163.103 61.2311 162.851 60.9351 162.539C60.6471 162.219 60.4271 161.863 60.2751 161.471C60.1311 161.079 60.0591 160.679 60.0591 160.271V160.055C60.0591 159.647 60.1351 159.247 60.2871 158.855C60.4391 158.455 60.6631 158.099 60.9591 157.787C61.2551 157.467 61.6151 157.215 62.0391 157.031C62.4631 156.839 62.9471 156.743 63.4911 156.743C64.0351 156.743 64.5191 156.839 64.9431 157.031C65.3671 157.215 65.7271 157.467 66.0231 157.787C66.3191 158.099 66.5431 158.455 66.6951 158.855C66.8471 159.247 66.9231 159.647 66.9231 160.055V160.271C66.9231 160.679 66.8471 161.079 66.6951 161.471C66.5511 161.863 66.3311 162.219 66.0351 162.539C65.7471 162.851 65.3911 163.103 64.9671 163.295C64.5431 163.487 64.0511 163.583 63.4911 163.583ZM63.4911 162.551C63.9711 162.551 64.3791 162.447 64.7151 162.239C65.0591 162.023 65.3191 161.735 65.4951 161.375C65.6791 161.015 65.7711 160.611 65.7711 160.163C65.7711 159.707 65.6791 159.299 65.4951 158.939C65.3111 158.579 65.0471 158.295 64.7031 158.087C64.3671 157.879 63.9631 157.775 63.4911 157.775C63.0271 157.775 62.6231 157.879 62.2791 158.087C61.9351 158.295 61.6711 158.579 61.4871 158.939C61.3031 159.299 61.2111 159.707 61.2111 160.163C61.2111 160.611 61.2991 161.015 61.4751 161.375C61.6591 161.735 61.9191 162.023 62.2551 162.239C62.5991 162.447 63.0111 162.551 63.4911 162.551ZM70.8684 163.559C70.1084 163.559 69.5244 163.311 69.1164 162.815C68.7084 162.319 68.5044 161.603 68.5044 160.667V156.947H69.6564V160.895C69.6564 161.399 69.7924 161.795 70.0644 162.083C70.3364 162.363 70.7044 162.503 71.1684 162.503C71.6484 162.503 72.0404 162.351 72.3444 162.047C72.6484 161.735 72.8004 161.311 72.8004 160.775V156.947H73.9524V163.367H73.0404V160.619H73.1844C73.1844 161.251 73.1004 161.787 72.9324 162.227C72.7644 162.659 72.5124 162.991 72.1764 163.223C71.8484 163.447 71.4284 163.559 70.9164 163.559H70.8684ZM78.6796 163.439C78.1996 163.439 77.7836 163.371 77.4316 163.235C77.0876 163.099 76.8196 162.867 76.6276 162.539C76.4436 162.203 76.3516 161.751 76.3516 161.183V155.015H77.4556V161.327C77.4556 161.671 77.5476 161.939 77.7316 162.131C77.9236 162.315 78.1916 162.407 78.5356 162.407H79.6636V163.439H78.6796ZM75.2476 157.823V156.959H79.6636V157.823H75.2476ZM86.2434 163.559C85.4834 163.559 84.8994 163.311 84.4914 162.815C84.0834 162.319 83.8794 161.603 83.8794 160.667V156.947H85.0314V160.895C85.0314 161.399 85.1674 161.795 85.4394 162.083C85.7114 162.363 86.0794 162.503 86.5434 162.503C87.0234 162.503 87.4154 162.351 87.7194 162.047C88.0234 161.735 88.1754 161.311 88.1754 160.775V156.947H89.3274V163.367H88.4154V160.619H88.5594C88.5594 161.251 88.4754 161.787 88.3074 162.227C88.1394 162.659 87.8874 162.991 87.5514 163.223C87.2234 163.447 86.8034 163.559 86.2914 163.559H86.2434ZM93.6586 163.559C92.8186 163.559 92.1666 163.379 91.7026 163.019C91.2466 162.659 91.0106 162.167 90.9946 161.543H92.0746C92.0906 161.791 92.2146 162.027 92.4466 162.251C92.6866 162.467 93.0906 162.575 93.6586 162.575C94.1706 162.575 94.5626 162.475 94.8346 162.275C95.1066 162.067 95.2426 161.815 95.2426 161.519C95.2426 161.255 95.1426 161.051 94.9426 160.907C94.7426 160.755 94.4186 160.655 93.9706 160.607L93.2746 160.535C92.6666 160.471 92.1706 160.291 91.7866 159.995C91.4026 159.691 91.2106 159.267 91.2106 158.723C91.2106 158.315 91.3146 157.967 91.5226 157.679C91.7306 157.383 92.0186 157.159 92.3866 157.007C92.7546 156.847 93.1786 156.767 93.6586 156.767C94.3786 156.767 94.9626 156.927 95.4106 157.247C95.8586 157.567 96.0906 158.043 96.1066 158.675H95.0266C95.0186 158.419 94.8986 158.203 94.6666 158.027C94.4426 157.843 94.1066 157.751 93.6586 157.751C93.2106 157.751 92.8706 157.843 92.6386 158.027C92.4066 158.211 92.2906 158.443 92.2906 158.723C92.2906 158.963 92.3706 159.155 92.5306 159.299C92.6986 159.443 92.9706 159.535 93.3466 159.575L94.0426 159.647C94.7306 159.719 95.2826 159.911 95.6986 160.223C96.1146 160.527 96.3226 160.959 96.3226 161.519C96.3226 161.919 96.2066 162.275 95.9746 162.587C95.7506 162.891 95.4386 163.131 95.0386 163.307C94.6386 163.475 94.1786 163.559 93.6586 163.559Z" fill="white"/>
<line opacity="0.5" x1="0.138184" y1="179.992" x2="31.6382" y2="179.992" stroke="white" stroke-width="0.75"/>
<path opacity="0.5" d="M49.725 184.559C48.885 184.559 48.233 184.379 47.769 184.019C47.313 183.659 47.077 183.167 47.061 182.543H48.141C48.157 182.791 48.281 183.027 48.513 183.251C48.753 183.467 49.157 183.575 49.725 183.575C50.237 183.575 50.629 183.475 50.901 183.275C51.173 183.067 51.309 182.815 51.309 182.519C51.309 182.255 51.209 182.051 51.009 181.907C50.809 181.755 50.485 181.655 50.037 181.607L49.341 181.535C48.733 181.471 48.237 181.291 47.853 180.995C47.469 180.691 47.277 180.267 47.277 179.723C47.277 179.315 47.381 178.967 47.589 178.679C47.797 178.383 48.085 178.159 48.453 178.007C48.821 177.847 49.245 177.767 49.725 177.767C50.445 177.767 51.029 177.927 51.477 178.247C51.925 178.567 52.157 179.043 52.173 179.675H51.093C51.085 179.419 50.965 179.203 50.733 179.027C50.509 178.843 50.173 178.751 49.725 178.751C49.277 178.751 48.937 178.843 48.705 179.027C48.473 179.211 48.357 179.443 48.357 179.723C48.357 179.963 48.437 180.155 48.597 180.299C48.765 180.443 49.037 180.535 49.413 180.575L50.109 180.647C50.797 180.719 51.349 180.911 51.765 181.223C52.181 181.527 52.389 181.959 52.389 182.519C52.389 182.919 52.273 183.275 52.041 183.587C51.817 183.891 51.505 184.131 51.105 184.307C50.705 184.475 50.245 184.559 49.725 184.559ZM56.7826 184.583C56.2226 184.583 55.7386 184.487 55.3306 184.295C54.9226 184.103 54.5906 183.851 54.3346 183.539C54.0786 183.219 53.8866 182.863 53.7586 182.471C53.6386 182.079 53.5786 181.679 53.5786 181.271V181.055C53.5786 180.639 53.6386 180.235 53.7586 179.843C53.8866 179.451 54.0786 179.099 54.3346 178.787C54.5906 178.467 54.9146 178.215 55.3066 178.031C55.7066 177.839 56.1746 177.743 56.7106 177.743C57.4066 177.743 57.9786 177.895 58.4266 178.199C58.8826 178.495 59.2186 178.879 59.4346 179.351C59.6586 179.823 59.7706 180.327 59.7706 180.863V181.379H54.0826V180.515H58.9306L58.6666 180.983C58.6666 180.527 58.5946 180.135 58.4506 179.807C58.3066 179.471 58.0906 179.211 57.8026 179.027C57.5146 178.843 57.1506 178.751 56.7106 178.751C56.2546 178.751 55.8746 178.855 55.5706 179.063C55.2746 179.271 55.0506 179.555 54.8986 179.915C54.7546 180.275 54.6826 180.691 54.6826 181.163C54.6826 181.619 54.7546 182.031 54.8986 182.399C55.0506 182.759 55.2826 183.047 55.5946 183.263C55.9066 183.471 56.3026 183.575 56.7826 183.575C57.2866 183.575 57.6946 183.463 58.0066 183.239C58.3266 183.015 58.5186 182.755 58.5826 182.459H59.6626C59.5746 182.899 59.3986 183.279 59.1346 183.599C58.8706 183.919 58.5386 184.163 58.1386 184.331C57.7386 184.499 57.2866 184.583 56.7826 184.583ZM61.4062 184.367V177.959H62.3182V180.599H62.2702C62.2702 179.663 62.4742 178.979 62.8822 178.547C63.2982 178.107 63.9182 177.887 64.7422 177.887H64.9582V178.919H64.5502C63.9102 178.919 63.4182 179.091 63.0742 179.435C62.7302 179.771 62.5582 180.259 62.5582 180.899V184.367H61.4062ZM67.9071 184.367L65.7231 177.959H66.9231L69.0591 184.367H67.9071ZM68.1951 184.367V183.455H69.5871V184.367H68.1951ZM68.7471 184.367L70.6071 177.959H71.7351L69.8391 184.367H68.7471ZM73.5542 184.367V177.959H74.7062V184.367H73.5542ZM72.5702 178.871V177.959H74.7062V178.871H72.5702ZM73.8782 176.927C73.6222 176.927 73.4302 176.859 73.3022 176.723C73.1822 176.587 73.1222 176.415 73.1222 176.207C73.1222 175.999 73.1822 175.827 73.3022 175.691C73.4302 175.555 73.6222 175.487 73.8782 175.487C74.1342 175.487 74.3222 175.555 74.4422 175.691C74.5702 175.827 74.6342 175.999 74.6342 176.207C74.6342 176.415 74.5702 176.587 74.4422 176.723C74.3222 176.859 74.1342 176.927 73.8782 176.927ZM79.6816 184.583C79.1296 184.583 78.6496 184.487 78.2416 184.295C77.8416 184.103 77.5096 183.847 77.2456 183.527C76.9816 183.199 76.7816 182.839 76.6456 182.447C76.5176 182.055 76.4536 181.663 76.4536 181.271V181.055C76.4536 180.647 76.5176 180.247 76.6456 179.855C76.7816 179.463 76.9816 179.111 77.2456 178.799C77.5176 178.479 77.8536 178.223 78.2536 178.031C78.6536 177.839 79.1216 177.743 79.6576 177.743C80.1936 177.743 80.6736 177.843 81.0976 178.043C81.5296 178.243 81.8736 178.527 82.1296 178.895C82.3936 179.255 82.5416 179.683 82.5736 180.179H81.4696C81.4136 179.779 81.2296 179.447 80.9176 179.183C80.6056 178.911 80.1856 178.775 79.6576 178.775C79.2016 178.775 78.8216 178.879 78.5176 179.087C78.2136 179.295 77.9856 179.579 77.8336 179.939C77.6816 180.299 77.6056 180.707 77.6056 181.163C77.6056 181.603 77.6816 182.007 77.8336 182.375C77.9856 182.735 78.2136 183.023 78.5176 183.239C78.8296 183.447 79.2176 183.551 79.6816 183.551C80.0416 183.551 80.3536 183.487 80.6176 183.359C80.8816 183.231 81.0936 183.059 81.2536 182.843C81.4136 182.627 81.5096 182.383 81.5416 182.111H82.6456C82.6216 182.615 82.4736 183.051 82.2016 183.419C81.9376 183.787 81.5856 184.075 81.1456 184.283C80.7136 184.483 80.2256 184.583 79.6816 184.583ZM86.9349 184.583C86.3749 184.583 85.8909 184.487 85.4829 184.295C85.0749 184.103 84.7429 183.851 84.4869 183.539C84.2309 183.219 84.0389 182.863 83.9109 182.471C83.7909 182.079 83.7309 181.679 83.7309 181.271V181.055C83.7309 180.639 83.7909 180.235 83.9109 179.843C84.0389 179.451 84.2309 179.099 84.4869 178.787C84.7429 178.467 85.0669 178.215 85.4589 178.031C85.8589 177.839 86.3269 177.743 86.8629 177.743C87.5589 177.743 88.1309 177.895 88.5789 178.199C89.0349 178.495 89.3709 178.879 89.5869 179.351C89.8109 179.823 89.9229 180.327 89.9229 180.863V181.379H84.2349V180.515H89.0829L88.8189 180.983C88.8189 180.527 88.7469 180.135 88.6029 179.807C88.4589 179.471 88.2429 179.211 87.9549 179.027C87.6669 178.843 87.3029 178.751 86.8629 178.751C86.4069 178.751 86.0269 178.855 85.7229 179.063C85.4269 179.271 85.2029 179.555 85.0509 179.915C84.9069 180.275 84.8349 180.691 84.8349 181.163C84.8349 181.619 84.9069 182.031 85.0509 182.399C85.2029 182.759 85.4349 183.047 85.7469 183.263C86.0589 183.471 86.4549 183.575 86.9349 183.575C87.4389 183.575 87.8469 183.463 88.1589 183.239C88.4789 183.015 88.6709 182.755 88.7349 182.459H89.8149C89.7269 182.899 89.5509 183.279 89.2869 183.599C89.0229 183.919 88.6909 184.163 88.2909 184.331C87.8909 184.499 87.4389 184.583 86.9349 184.583ZM93.6586 184.559C92.8186 184.559 92.1666 184.379 91.7026 184.019C91.2466 183.659 91.0106 183.167 90.9946 182.543H92.0746C92.0906 182.791 92.2146 183.027 92.4466 183.251C92.6866 183.467 93.0906 183.575 93.6586 183.575C94.1706 183.575 94.5626 183.475 94.8346 183.275C95.1066 183.067 95.2426 182.815 95.2426 182.519C95.2426 182.255 95.1426 182.051 94.9426 181.907C94.7426 181.755 94.4186 181.655 93.9706 181.607L93.2746 181.535C92.6666 181.471 92.1706 181.291 91.7866 180.995C91.4026 180.691 91.2106 180.267 91.2106 179.723C91.2106 179.315 91.3146 178.967 91.5226 178.679C91.7306 178.383 92.0186 178.159 92.3866 178.007C92.7546 177.847 93.1786 177.767 93.6586 177.767C94.3786 177.767 94.9626 177.927 95.4106 178.247C95.8586 178.567 96.0906 179.043 96.1066 179.675H95.0266C95.0186 179.419 94.8986 179.203 94.6666 179.027C94.4426 178.843 94.1066 178.751 93.6586 178.751C93.2106 178.751 92.8706 178.843 92.6386 179.027C92.4066 179.211 92.2906 179.443 92.2906 179.723C92.2906 179.963 92.3706 180.155 92.5306 180.299C92.6986 180.443 92.9706 180.535 93.3466 180.575L94.0426 180.647C94.7306 180.719 95.2826 180.911 95.6986 181.223C96.1146 181.527 96.3226 181.959 96.3226 182.519C96.3226 182.919 96.2066 183.275 95.9746 183.587C95.7506 183.891 95.4386 184.131 95.0386 184.307C94.6386 184.475 94.1786 184.559 93.6586 184.559Z" fill="white"/>
<line opacity="0.5" x1="0.138184" y1="200.992" x2="45.6382" y2="200.992" stroke="white" stroke-width="0.75"/>
<path opacity="0.5" d="M63.5595 205.367L64.8555 199.175H66.4155L67.9275 205.367H66.9435L65.4315 199.199H65.8155L64.5075 205.367H63.5595ZM62.9715 205.367V204.455H64.3035V205.367H62.9715ZM62.7075 205.367L60.8955 198.959H61.9995L63.7635 205.367H62.7075ZM67.1835 205.367V204.455H68.5155V205.367H67.1835ZM67.7235 205.367L69.2595 198.959H70.3035L68.7315 205.367H67.7235ZM74.6942 205.583C74.1342 205.583 73.6422 205.487 73.2182 205.295C72.7942 205.103 72.4342 204.851 72.1382 204.539C71.8502 204.219 71.6302 203.863 71.4782 203.471C71.3342 203.079 71.2622 202.679 71.2622 202.271V202.055C71.2622 201.647 71.3382 201.247 71.4902 200.855C71.6422 200.455 71.8662 200.099 72.1622 199.787C72.4582 199.467 72.8182 199.215 73.2422 199.031C73.6662 198.839 74.1502 198.743 74.6942 198.743C75.2382 198.743 75.7222 198.839 76.1462 199.031C76.5702 199.215 76.9302 199.467 77.2262 199.787C77.5222 200.099 77.7462 200.455 77.8982 200.855C78.0502 201.247 78.1262 201.647 78.1262 202.055V202.271C78.1262 202.679 78.0502 203.079 77.8982 203.471C77.7542 203.863 77.5342 204.219 77.2382 204.539C76.9502 204.851 76.5942 205.103 76.1702 205.295C75.7462 205.487 75.2542 205.583 74.6942 205.583ZM74.6942 204.551C75.1742 204.551 75.5822 204.447 75.9182 204.239C76.2622 204.023 76.5222 203.735 76.6982 203.375C76.8822 203.015 76.9742 202.611 76.9742 202.163C76.9742 201.707 76.8822 201.299 76.6982 200.939C76.5142 200.579 76.2502 200.295 75.9062 200.087C75.5702 199.879 75.1662 199.775 74.6942 199.775C74.2302 199.775 73.8262 199.879 73.4822 200.087C73.1382 200.295 72.8742 200.579 72.6902 200.939C72.5062 201.299 72.4142 201.707 72.4142 202.163C72.4142 202.611 72.5022 203.015 72.6782 203.375C72.8622 203.735 73.1222 204.023 73.4582 204.239C73.8022 204.447 74.2142 204.551 74.6942 204.551ZM79.8516 205.367V198.959H80.7636V201.599H80.7156C80.7156 200.663 80.9196 199.979 81.3276 199.547C81.7436 199.107 82.3636 198.887 83.1876 198.887H83.4036V199.919H82.9956C82.3556 199.919 81.8636 200.091 81.5196 200.435C81.1756 200.771 81.0036 201.259 81.0036 201.899V205.367H79.8516ZM89.1894 205.367L86.7774 202.379H85.7214L88.6614 198.959H89.8734L87.2094 202.043L87.2934 201.431L90.5214 205.367H89.1894ZM84.7734 205.367V196.607H85.9254V205.367H84.7734ZM93.6586 205.559C92.8186 205.559 92.1666 205.379 91.7026 205.019C91.2466 204.659 91.0106 204.167 90.9946 203.543H92.0746C92.0906 203.791 92.2146 204.027 92.4466 204.251C92.6866 204.467 93.0906 204.575 93.6586 204.575C94.1706 204.575 94.5626 204.475 94.8346 204.275C95.1066 204.067 95.2426 203.815 95.2426 203.519C95.2426 203.255 95.1426 203.051 94.9426 202.907C94.7426 202.755 94.4186 202.655 93.9706 202.607L93.2746 202.535C92.6666 202.471 92.1706 202.291 91.7866 201.995C91.4026 201.691 91.2106 201.267 91.2106 200.723C91.2106 200.315 91.3146 199.967 91.5226 199.679C91.7306 199.383 92.0186 199.159 92.3866 199.007C92.7546 198.847 93.1786 198.767 93.6586 198.767C94.3786 198.767 94.9626 198.927 95.4106 199.247C95.8586 199.567 96.0906 200.043 96.1066 200.675H95.0266C95.0186 200.419 94.8986 200.203 94.6666 200.027C94.4426 199.843 94.1066 199.751 93.6586 199.751C93.2106 199.751 92.8706 199.843 92.6386 200.027C92.4066 200.211 92.2906 200.443 92.2906 200.723C92.2906 200.963 92.3706 201.155 92.5306 201.299C92.6986 201.443 92.9706 201.535 93.3466 201.575L94.0426 201.647C94.7306 201.719 95.2826 201.911 95.6986 202.223C96.1146 202.527 96.3226 202.959 96.3226 203.519C96.3226 203.919 96.2066 204.275 95.9746 204.587C95.7506 204.891 95.4386 205.131 95.0386 205.307C94.6386 205.475 94.1786 205.559 93.6586 205.559Z" fill="white"/>
<line opacity="0.5" x1="0.138184" y1="221.992" x2="20.6382" y2="221.992" stroke="white" stroke-width="0.75"/>
<path opacity="0.5" d="M37.1909 226.367V219.959H38.3429V226.367H37.1909ZM36.2069 220.871V219.959H38.3429V220.871H36.2069ZM37.5149 218.927C37.2589 218.927 37.0669 218.859 36.9389 218.723C36.8189 218.587 36.7589 218.415 36.7589 218.207C36.7589 217.999 36.8189 217.827 36.9389 217.691C37.0669 217.555 37.2589 217.487 37.5149 217.487C37.7709 217.487 37.9589 217.555 38.0789 217.691C38.2069 217.827 38.2709 217.999 38.2709 218.207C38.2709 218.415 38.2069 218.587 38.0789 218.723C37.9589 218.859 37.7709 218.927 37.5149 218.927ZM40.5703 226.367V219.959H41.4823V222.707H41.3383C41.3383 222.075 41.4223 221.543 41.5903 221.111C41.7663 220.671 42.0303 220.339 42.3823 220.115C42.7343 219.883 43.1783 219.767 43.7143 219.767H43.7623C44.5703 219.767 45.1663 220.019 45.5503 220.523C45.9423 221.027 46.1383 221.755 46.1383 222.707V226.367H44.9863V222.467C44.9863 221.971 44.8463 221.575 44.5663 221.279C44.2863 220.975 43.9023 220.823 43.4143 220.823C42.9103 220.823 42.5023 220.979 42.1903 221.291C41.8783 221.603 41.7223 222.019 41.7223 222.539V226.367H40.5703ZM50.9221 226.583C50.4661 226.583 50.0461 226.499 49.6621 226.331C49.2781 226.163 48.9421 225.927 48.6541 225.623C48.3741 225.319 48.1541 224.967 47.9941 224.567C47.8421 224.167 47.7661 223.735 47.7661 223.271V223.055C47.7661 222.599 47.8421 222.171 47.9941 221.771C48.1461 221.371 48.3581 221.019 48.6301 220.715C48.9101 220.411 49.2381 220.175 49.6141 220.007C49.9981 219.831 50.4221 219.743 50.8861 219.743C51.3741 219.743 51.8181 219.847 52.2181 220.055C52.6181 220.255 52.9461 220.571 53.2021 221.003C53.4581 221.435 53.6021 221.995 53.6341 222.683L53.1541 221.915V217.607H54.3061V226.367H53.3941V223.523H53.7301C53.6981 224.251 53.5461 224.843 53.2741 225.299C53.0021 225.747 52.6581 226.075 52.2421 226.283C51.8341 226.483 51.3941 226.583 50.9221 226.583ZM51.0781 225.575C51.4701 225.575 51.8261 225.487 52.1461 225.311C52.4661 225.135 52.7221 224.883 52.9141 224.555C53.1061 224.219 53.2021 223.827 53.2021 223.379V222.827C53.2021 222.387 53.1021 222.015 52.9021 221.711C52.7101 221.399 52.4501 221.163 52.1221 221.003C51.8021 220.835 51.4501 220.751 51.0661 220.751C50.6421 220.751 50.2661 220.851 49.9381 221.051C49.6181 221.251 49.3661 221.531 49.1821 221.891C49.0061 222.251 48.9181 222.675 48.9181 223.163C48.9181 223.651 49.0101 224.079 49.1941 224.447C49.3781 224.807 49.6341 225.087 49.9621 225.287C50.2901 225.479 50.6621 225.575 51.0781 225.575ZM58.7395 226.559C57.9795 226.559 57.3955 226.311 56.9875 225.815C56.5795 225.319 56.3755 224.603 56.3755 223.667V219.947H57.5275V223.895C57.5275 224.399 57.6635 224.795 57.9355 225.083C58.2075 225.363 58.5755 225.503 59.0395 225.503C59.5195 225.503 59.9115 225.351 60.2155 225.047C60.5195 224.735 60.6715 224.311 60.6715 223.775V219.947H61.8235V226.367H60.9115V223.619H61.0555C61.0555 224.251 60.9715 224.787 60.8035 225.227C60.6355 225.659 60.3835 225.991 60.0475 226.223C59.7195 226.447 59.2995 226.559 58.7875 226.559H58.7395ZM66.1547 226.559C65.3147 226.559 64.6627 226.379 64.1987 226.019C63.7427 225.659 63.5067 225.167 63.4907 224.543H64.5707C64.5867 224.791 64.7107 225.027 64.9427 225.251C65.1827 225.467 65.5867 225.575 66.1547 225.575C66.6667 225.575 67.0587 225.475 67.3307 225.275C67.6027 225.067 67.7387 224.815 67.7387 224.519C67.7387 224.255 67.6387 224.051 67.4387 223.907C67.2387 223.755 66.9147 223.655 66.4667 223.607L65.7707 223.535C65.1627 223.471 64.6667 223.291 64.2827 222.995C63.8987 222.691 63.7067 222.267 63.7067 221.723C63.7067 221.315 63.8107 220.967 64.0187 220.679C64.2267 220.383 64.5147 220.159 64.8827 220.007C65.2507 219.847 65.6747 219.767 66.1547 219.767C66.8747 219.767 67.4587 219.927 67.9067 220.247C68.3547 220.567 68.5867 221.043 68.6027 221.675H67.5227C67.5147 221.419 67.3947 221.203 67.1627 221.027C66.9387 220.843 66.6027 220.751 66.1547 220.751C65.7067 220.751 65.3667 220.843 65.1347 221.027C64.9027 221.211 64.7867 221.443 64.7867 221.723C64.7867 221.963 64.8667 222.155 65.0267 222.299C65.1947 222.443 65.4667 222.535 65.8427 222.575L66.5387 222.647C67.2267 222.719 67.7787 222.911 68.1947 223.223C68.6107 223.527 68.8187 223.959 68.8187 224.519C68.8187 224.919 68.7027 225.275 68.4707 225.587C68.2467 225.891 67.9347 226.131 67.5347 226.307C67.1347 226.475 66.6747 226.559 66.1547 226.559ZM72.9843 226.439C72.5043 226.439 72.0883 226.371 71.7363 226.235C71.3923 226.099 71.1243 225.867 70.9323 225.539C70.7483 225.203 70.6563 224.751 70.6563 224.183V218.015H71.7603V224.327C71.7603 224.671 71.8523 224.939 72.0363 225.131C72.2283 225.315 72.4963 225.407 72.8403 225.407H73.9683V226.439H72.9843ZM69.5523 220.823V219.959H73.9683V220.823H69.5523ZM75.5977 226.367V219.959H76.5097V222.599H76.4617C76.4617 221.663 76.6657 220.979 77.0737 220.547C77.4897 220.107 78.1097 219.887 78.9337 219.887H79.1497V220.919H78.7417C78.1017 220.919 77.6097 221.091 77.2657 221.435C76.9217 221.771 76.7497 222.259 76.7497 222.899V226.367H75.5977ZM80.8315 226.367V219.959H81.9835V226.367H80.8315ZM79.8475 220.871V219.959H81.9835V220.871H79.8475ZM81.1555 218.927C80.8995 218.927 80.7075 218.859 80.5795 218.723C80.4595 218.587 80.3995 218.415 80.3995 218.207C80.3995 217.999 80.4595 217.827 80.5795 217.691C80.7075 217.555 80.8995 217.487 81.1555 217.487C81.4115 217.487 81.5995 217.555 81.7195 217.691C81.8475 217.827 81.9115 217.999 81.9115 218.207C81.9115 218.415 81.8475 218.587 81.7195 218.723C81.5995 218.859 81.4115 218.927 81.1555 218.927ZM86.9349 226.583C86.3749 226.583 85.8909 226.487 85.4829 226.295C85.0749 226.103 84.7429 225.851 84.4869 225.539C84.2309 225.219 84.0389 224.863 83.9109 224.471C83.7909 224.079 83.7309 223.679 83.7309 223.271V223.055C83.7309 222.639 83.7909 222.235 83.9109 221.843C84.0389 221.451 84.2309 221.099 84.4869 220.787C84.7429 220.467 85.0669 220.215 85.4589 220.031C85.8589 219.839 86.3269 219.743 86.8629 219.743C87.5589 219.743 88.1309 219.895 88.5789 220.199C89.0349 220.495 89.3709 220.879 89.5869 221.351C89.8109 221.823 89.9229 222.327 89.9229 222.863V223.379H84.2349V222.515H89.0829L88.8189 222.983C88.8189 222.527 88.7469 222.135 88.6029 221.807C88.4589 221.471 88.2429 221.211 87.9549 221.027C87.6669 220.843 87.3029 220.751 86.8629 220.751C86.4069 220.751 86.0269 220.855 85.7229 221.063C85.4269 221.271 85.2029 221.555 85.0509 221.915C84.9069 222.275 84.8349 222.691 84.8349 223.163C84.8349 223.619 84.9069 224.031 85.0509 224.399C85.2029 224.759 85.4349 225.047 85.7469 225.263C86.0589 225.471 86.4549 225.575 86.9349 225.575C87.4389 225.575 87.8469 225.463 88.1589 225.239C88.4789 225.015 88.6709 224.755 88.7349 224.459H89.8149C89.7269 224.899 89.5509 225.279 89.2869 225.599C89.0229 225.919 88.6909 226.163 88.2909 226.331C87.8909 226.499 87.4389 226.583 86.9349 226.583ZM93.6586 226.559C92.8186 226.559 92.1666 226.379 91.7026 226.019C91.2466 225.659 91.0106 225.167 90.9946 224.543H92.0746C92.0906 224.791 92.2146 225.027 92.4466 225.251C92.6866 225.467 93.0906 225.575 93.6586 225.575C94.1706 225.575 94.5626 225.475 94.8346 225.275C95.1066 225.067 95.2426 224.815 95.2426 224.519C95.2426 224.255 95.1426 224.051 94.9426 223.907C94.7426 223.755 94.4186 223.655 93.9706 223.607L93.2746 223.535C92.6666 223.471 92.1706 223.291 91.7866 222.995C91.4026 222.691 91.2106 222.267 91.2106 221.723C91.2106 221.315 91.3146 220.967 91.5226 220.679C91.7306 220.383 92.0186 220.159 92.3866 220.007C92.7546 219.847 93.1786 219.767 93.6586 219.767C94.3786 219.767 94.9626 219.927 95.4106 220.247C95.8586 220.567 96.0906 221.043 96.1066 221.675H95.0266C95.0186 221.419 94.8986 221.203 94.6666 221.027C94.4426 220.843 94.1066 220.751 93.6586 220.751C93.2106 220.751 92.8706 220.843 92.6386 221.027C92.4066 221.211 92.2906 221.443 92.2906 221.723C92.2906 221.963 92.3706 222.155 92.5306 222.299C92.6986 222.443 92.9706 222.535 93.3466 222.575L94.0426 222.647C94.7306 222.719 95.2826 222.911 95.6986 223.223C96.1146 223.527 96.3226 223.959 96.3226 224.519C96.3226 224.919 96.2066 225.275 95.9746 225.587C95.7506 225.891 95.4386 226.131 95.0386 226.307C94.6386 226.475 94.1786 226.559 93.6586 226.559Z" fill="white"/>
</g>
</svg>
