<svg width="100" height="45" viewBox="0 0 100 45" fill="none" xmlns="http://www.w3.org/2000/svg">
<path d="M59.1383 44.7041H61.025V37.4927C61.025 35.3543 62.5935 34.2396 64.3438 34.2396C66.2533 34.2396 67.1398 35.1723 67.1398 37.2652V44.7041H69.0265V37.4017C69.0265 33.9438 67.2989 32.6017 64.8439 32.6017C62.889 32.6017 61.5706 33.5799 61.025 34.6946V32.8064H59.1383V44.7041Z" fill="#100E0E"/>
<path d="M76.2246 44.9088C78.9069 44.9088 80.8846 43.6576 81.2937 41.269H79.407C79.157 42.6567 78.0886 43.3391 76.2473 43.3391C73.8151 43.3391 72.5194 41.8377 72.4284 39.1306H81.3847V38.5164C81.3847 34.2623 78.7933 32.6017 76.0427 32.6017C72.7694 32.6017 70.4735 35.104 70.4735 38.6984V38.8804C70.4735 42.5429 72.8603 44.9088 76.2246 44.9088ZM72.4966 37.6064C72.8149 35.4908 74.1106 34.1713 76.0427 34.1713C77.9977 34.1713 79.2706 35.1495 79.4525 37.6064H72.4966Z" fill="#100E0E"/>
<path d="M86.0047 44.9088C87.755 44.9088 88.8234 44.3173 89.7099 43.2026V44.7041H91.5966V36.8557C91.5966 33.5344 89.528 32.6017 87.2549 32.6017C84.959 32.6017 82.7995 33.6026 82.5495 36.3097H84.4362C84.618 34.8538 85.5273 34.1713 87.164 34.1713C88.9825 34.1713 89.7099 34.9675 89.7099 36.8557V37.7202H88.005C84.959 37.7202 82.0494 38.6529 82.0494 41.4055C82.0494 43.8396 83.7997 44.9088 86.0047 44.9088ZM86.1865 43.4074C84.5271 43.4074 83.9361 42.6339 83.9361 41.4055C83.9361 39.6538 85.6864 39.0623 88.0732 39.0623H89.7099V40.541C89.7099 42.3837 88.1869 43.4074 86.1865 43.4074Z" fill="#100E0E"/>
<path d="M93.9389 44.7041H95.8256V38.1751C95.8256 35.2405 97.3486 34.4898 99.7354 34.3761V32.6017C97.5986 32.6699 96.5757 33.6026 95.8256 34.9448V32.8064H93.9389V44.7041Z" fill="#100E0E"/>
<path d="M6.49177 44.9089C9.37325 44.9089 11.4543 42.9865 11.7059 40.4003H9.94497C9.73915 42.3456 8.20694 43.3298 6.51464 43.3298C4.20488 43.3298 2.60405 41.7735 2.60405 38.844V38.6609C2.60405 35.8459 4.27348 34.1065 6.44603 34.1065C8.09259 34.1065 9.46473 34.816 9.76202 36.7156H11.6373C11.2714 33.6717 8.93874 32.5274 6.44603 32.5274C3.24438 32.5274 0.637329 34.9991 0.637329 38.6609V38.844C0.637329 42.5516 3.15291 44.9089 6.49177 44.9089Z" fill="#100E0E"/>
<path d="M18.1849 43.3298C15.7608 43.3298 14.2743 41.5446 14.2743 38.8211V38.638C14.2743 35.8917 15.7837 34.1065 18.1849 34.1065C20.5633 34.1065 22.0955 35.8917 22.0955 38.6609V38.8211C22.0955 41.5217 20.5862 43.3298 18.1849 43.3298ZM18.1621 44.9089C21.5695 44.9089 24.0622 42.4143 24.0622 38.7982V38.6152C24.0622 35.022 21.5695 32.5274 18.1849 32.5274C14.8003 32.5274 12.3076 35.0449 12.3076 38.638V38.8211C12.3076 42.3228 14.7546 44.9089 18.1621 44.9089Z" fill="#100E0E"/>
<path d="M30.1343 44.9089C31.8723 44.9089 33.5417 43.8104 34.2278 42.6432V44.7029H36.1259V-0.797363H34.2278V34.6558C33.5417 33.4886 32.3068 32.5274 30.3172 32.5274C27.0241 32.5274 24.7372 35.1135 24.7372 38.7754V38.9584C24.7372 42.6889 27.0012 44.9089 30.1343 44.9089ZM30.3401 43.3298C28.3276 43.3298 26.7039 41.8879 26.7039 38.8669V38.6838C26.7039 35.7772 28.1218 34.1065 30.5002 34.1065C32.8328 34.1065 34.2964 35.5484 34.2964 38.6152V38.7982C34.2964 41.865 32.5584 43.3298 30.3401 43.3298Z" fill="#100E0E"/>
<path d="M43.4886 44.9089C46.1872 44.9089 48.1768 43.6502 48.5884 41.2471H46.6903C46.4387 42.6432 45.3639 43.3298 43.5115 43.3298C41.0645 43.3298 39.761 41.8193 39.6695 39.0958H48.6799V38.4778C48.6799 34.1981 46.0728 32.5274 43.3057 32.5274C40.0126 32.5274 37.7028 35.0449 37.7028 38.6609V38.844C37.7028 42.5287 40.104 44.9089 43.4886 44.9089ZM39.7381 37.5624C40.0583 35.4339 41.3618 34.1065 43.3057 34.1065C45.2724 34.1065 46.5531 35.0906 46.736 37.5624H39.7381Z" fill="#100E0E"/>
<path d="M50.2661 44.7029H52.187V-0.797363H50.2661V44.7029Z" fill="#100E0E"/>
<path d="M54.7452 44.7029H56.6433V32.7333H54.7452V44.7029ZM55.6599 30.2387C56.346 30.2387 56.9177 29.6666 56.9177 28.98C56.9177 28.2934 56.346 27.7212 55.6599 27.7212C54.9738 27.7212 54.4021 28.2934 54.4021 28.98C54.4021 29.6666 54.9738 30.2387 55.6599 30.2387Z" fill="#100E0E"/>
</svg>
