<svg width="152" height="90" viewBox="0 0 152 90" fill="none" xmlns="http://www.w3.org/2000/svg">
<circle cx="106.761" cy="44.8771" r="43.6546" transform="rotate(-90 106.761 44.8771)" stroke="#131313"/>
<rect x="97.0435" y="45.4565" width="1.15946" height="19.2297" transform="rotate(-90 97.0435 45.4565)" fill="#131313"/>
<rect x="109.253" y="37.427" width="1.15946" height="9.75225" transform="rotate(-38.8464 109.253 37.427)" fill="#131313"/>
<rect width="1.15946" height="9.75225" transform="matrix(0.77883 0.627235 0.627235 -0.77883 109.253 52.3223)" fill="#131313"/>
<path d="M10.721 41.8122H9.08696C9.04896 40.0389 7.91529 39.1522 5.68596 39.1522C4.77396 39.1522 4.03929 39.3612 3.48196 39.7792C2.92462 40.1845 2.64596 40.7229 2.64596 41.3942C2.64596 41.9009 2.81062 42.3062 3.13996 42.6102C3.48196 42.9015 4.06462 43.1549 4.88796 43.3702L8.11796 44.2062C10.17 44.7509 11.196 45.8909 11.196 47.6262C11.196 48.8802 10.6956 49.8999 9.69496 50.6852C8.80829 51.3692 7.53529 51.7112 5.87596 51.7112C3.77329 51.7112 2.24696 51.0779 1.29696 49.8112C0.79029 49.1272 0.52429 48.2089 0.498957 47.0562H2.13296V47.0942C2.13296 48.0822 2.46862 48.8485 3.13996 49.3932C3.82396 49.9252 4.77396 50.1912 5.98996 50.1912C7.10462 50.1912 7.93429 50.0075 8.47896 49.6402C9.12496 49.1969 9.44796 48.5762 9.44796 47.7782C9.44796 46.7649 8.61829 46.0492 6.95896 45.6312L3.57696 44.7572C1.80362 44.3012 0.916957 43.2562 0.916957 41.6222C0.916957 40.3302 1.40462 39.3295 2.37996 38.6202C3.22862 37.9995 4.34962 37.6892 5.74296 37.6892C7.71896 37.6892 9.13129 38.2655 9.97996 39.4182C10.474 40.0895 10.721 40.8179 10.721 41.6032C10.721 41.6412 10.721 41.7109 10.721 41.8122ZM15.4572 45.3082V49.9632H23.4752V51.5022H13.7282V37.8982H23.1522V39.4372H15.4572V43.7692H22.8672V45.3082H15.4572ZM27.9643 45.6502V51.5022H26.2353V37.8982H32.4863C33.9303 37.8982 35.007 38.2529 35.7163 38.9622C36.337 39.5829 36.6473 40.4442 36.6473 41.5462C36.6473 42.3189 36.4763 42.9585 36.1343 43.4652C35.805 43.9719 35.254 44.4152 34.4813 44.7952C35.102 45.0359 35.558 45.3589 35.8493 45.7642C36.1407 46.1822 36.3053 47.0372 36.3433 48.3292C36.3687 49.2792 36.4257 49.9189 36.5143 50.2482C36.6157 50.5649 36.831 50.8372 37.1603 51.0652V51.5022H35.0703C34.7917 50.9195 34.6523 50.3052 34.6523 49.6592L34.6713 47.5312C34.6713 47.3919 34.6143 47.1765 34.5003 46.8852C34.3863 46.5939 34.2787 46.3849 34.1773 46.2582C33.8353 45.8529 33.2527 45.6502 32.4293 45.6502H27.9643ZM27.9643 44.1112H32.1633C33.9493 44.1112 34.8423 43.3322 34.8423 41.7742C34.8423 40.2162 33.9493 39.4372 32.1633 39.4372H27.9643V44.1112ZM45.2921 51.5022H43.4111L38.5281 37.8982H40.3901L44.3991 49.4122L48.1611 37.8982H50.0041L45.2921 51.5022ZM54.0562 37.8982V51.5022H52.2892V37.8982H54.0562ZM67.9726 42.0592H66.1866C65.9966 41.1472 65.6672 40.4822 65.1986 40.0642C64.5906 39.5069 63.7039 39.2282 62.5386 39.2282C61.1199 39.2282 60.0242 39.7855 59.2516 40.9002C58.5802 41.8755 58.2446 43.1549 58.2446 44.7382C58.2446 46.5242 58.6942 47.9112 59.5936 48.8992C60.3916 49.7479 61.4176 50.1722 62.6716 50.1722C64.2042 50.1722 65.2619 49.6085 65.8446 48.4812C66.1106 47.9619 66.3196 47.2715 66.4716 46.4102H68.2576C67.8396 49.9442 65.9839 51.7112 62.6906 51.7112C60.9172 51.7112 59.5176 51.1919 58.4916 50.1532C57.1742 48.8232 56.5156 47.0372 56.5156 44.7952C56.5156 42.6165 57.1489 40.8242 58.4156 39.4182C59.4542 38.2655 60.8856 37.6892 62.7096 37.6892C65.6736 37.6892 67.4279 39.1459 67.9726 42.0592ZM72.4943 45.3082V49.9632H80.5123V51.5022H70.7653V37.8982H80.1893V39.4372H72.4943V43.7692H79.9043V45.3082H72.4943ZM92.6585 41.8122H91.0245C90.9865 40.0389 89.8528 39.1522 87.6235 39.1522C86.7115 39.1522 85.9768 39.3612 85.4195 39.7792C84.8621 40.1845 84.5835 40.7229 84.5835 41.3942C84.5835 41.9009 84.7481 42.3062 85.0775 42.6102C85.4195 42.9015 86.0021 43.1549 86.8255 43.3702L90.0555 44.2062C92.1075 44.7509 93.1335 45.8909 93.1335 47.6262C93.1335 48.8802 92.6331 49.8999 91.6325 50.6852C90.7458 51.3692 89.4728 51.7112 87.8135 51.7112C85.7108 51.7112 84.1845 51.0779 83.2345 49.8112C82.7278 49.1272 82.4618 48.2089 82.4365 47.0562H84.0705V47.0942C84.0705 48.0822 84.4061 48.8485 85.0775 49.3932C85.7615 49.9252 86.7115 50.1912 87.9275 50.1912C89.0421 50.1912 89.8718 50.0075 90.4165 49.6402C91.0625 49.1969 91.3855 48.5762 91.3855 47.7782C91.3855 46.7649 90.5558 46.0492 88.8965 45.6312L85.5145 44.7572C83.7411 44.3012 82.8545 43.2562 82.8545 41.6222C82.8545 40.3302 83.3421 39.3295 84.3175 38.6202C85.1661 37.9995 86.2871 37.6892 87.6805 37.6892C89.6565 37.6892 91.0688 38.2655 91.9175 39.4182C92.4115 40.0895 92.6585 40.8179 92.6585 41.6032C92.6585 41.6412 92.6585 41.7109 92.6585 41.8122Z" fill="#131313"/>
</svg>
